<?xml version="1.0" encoding="UTF-8"?>
<svg id="GitHub" xmlns="http://www.w3.org/2000/svg" xmlns:xlink="http://www.w3.org/1999/xlink" version="1.1" viewBox="0 0 512 512">
  <!-- Generator: Adobe Illustrator 29.2.1, SVG Export Plug-In . SVG Version: 2.1.0 Build 116)  -->
  <path d="M260.3,376.1v89.2c-1.4,0-2.9.1-4.3.1-2.1,0-4.1,0-6.2-.2v-89.2c0-2.9,2.4-5.3,5.3-5.3,2.9,0,5.3,2.4,5.3,5.3ZM207.6,381.4v78.4c3.5.8,7,1.6,10.5,2.2v-91.1c-10.5,0-10.5,10.5-10.5,10.5ZM48.7,289.6c11.8,72.7,61,132.8,127.3,160.1v-61.8h-19.9c-80,0-58.9-89.3-107.4-98.2ZM256,46.5c-116,0-210,93.8-210,209.5s.9,22.5,2.7,33.3c53.2,2,59.8,61.5,107.5,61.5h23.8c4.5-12.5,12.7-23.1,23.3-30.8-22-7-40.5-22-52-41.7-20.5,1.7-40.1,3.7-53.1,6-.2,0-.5,0-.7,0-2,0-3.7-1.4-4-3.4-.4-2.2,1.1-4.4,3.3-4.7,12.6-2.2,31-4.1,50.4-5.8-1-2.2-2-4.4-2.8-6.7-24.2,0-47.4.6-61.4,3-.2,0-.5,0-.7,0-2,0-3.7-1.4-4-3.4-.4-2.2,1.1-4.4,3.3-4.7,14.1-2.4,36.6-3.2,60.2-3.2-2-7.7-3.1-15.7-3.1-24,0-19.6,6.1-37.8,16.4-52.7-1.6-6.6-7-33.6,4.1-56.2,19.8,1.3,36.8,12.8,45.5,20,8.5-2.6,17.5-4,26.8-4h47.2c9.3,0,18.3,1.4,26.8,4,8.8-7.2,25.8-18.7,45.5-20,11.2,22.6,5.7,49.6,4.1,56.2,10.4,15,16.4,33.1,16.4,52.7s-1.1,16.3-3.1,24c23.6,0,46.1.8,60.2,3.2,2.2.4,3.7,2.5,3.3,4.7-.3,2-2.1,3.4-4,3.4s-.5,0-.7,0c-14-2.4-37.2-3.1-61.4-3-.9,2.3-1.8,4.5-2.8,6.7,19.4,1.6,37.8,3.6,50.4,5.8,2.2.4,3.7,2.5,3.3,4.7-.3,2-2.1,3.4-4,3.4s-.5,0-.7,0c-13-2.2-32.6-4.3-53.2-6-11.5,19.6-29.9,34.6-52,41.7,16.5,11.9,27.2,31.3,27.2,53.2v77.2c77.3-30.9,131.9-106.3,131.9-194.4S372,46.5,256,46.5ZM281.9,302h-51.7c-32.6,0-59-26.4-59-59s26.4-59,59-59h51.7c32.6,0,59,26.4,59,59,0,32.6-26.4,59-59,59ZM231.9,219.1c0-8-6.5-14.5-14.5-14.5s-14.5,6.5-14.5,14.5v22.5c0,8,6.5,14.5,14.5,14.5s14.5-6.5,14.5-14.5v-22.5h0ZM309,219.1c0-8-6.5-14.5-14.5-14.5s-14.5,6.5-14.5,14.5v22.5c0,8,6.5,14.5,14.5,14.5s14.5-6.5,14.5-14.5v-22.5ZM291.9,370.9v91.5c3.6-.6,7.1-1.3,10.5-2.1v-78.9s0-10.5-10.5-10.5Z"/>
</svg>