<?xml version="1.0" encoding="UTF-8"?>
<svg id="graphics" xmlns="http://www.w3.org/2000/svg" viewBox="0 0 1395.85 863.78">
  <defs>
    <style>
      .cls-1 {
        fill: #58595b;
      }

      .cls-1, .cls-2, .cls-3, .cls-4, .cls-5, .cls-6, .cls-7, .cls-8, .cls-9 {
        stroke-miterlimit: 10;
      }

      .cls-1, .cls-2, .cls-3, .cls-5, .cls-6, .cls-7, .cls-8 {
        stroke: #231f20;
      }

      .cls-2, .cls-4, .cls-6, .cls-9 {
        fill: none;
      }

      .cls-10, .cls-8 {
        fill: #231f20;
      }

      .cls-3 {
        fill: #414042;
      }

      .cls-4 {
        stroke-width: .75px;
      }

      .cls-4, .cls-9 {
        stroke: #fff;
      }

      .cls-11, .cls-7 {
        fill: #fff;
      }

      .cls-5 {
        fill: #be1e2d;
      }

      .cls-6, .cls-9 {
        stroke-width: 2px;
      }
    </style>
  </defs>
  <path class="cls-11" d="M1351.68,701.83c-4.11-3.46-8.21-6.93-12.32-10.39,1.28-2.2,2.56-4.4,3.84-6.59,1.15,1.77,2.3,3.54,3.46,5.32.22-.04,1.58-.28,2.77.63.84.64,1.12,1.5,1.2,1.8,2.42.4,4.84.8,7.26,1.19-2.07,2.68-4.14,5.37-6.21,8.05Z"/>
  <path class="cls-7" d="M1299.25,731.97c.93,1.54,5.25,7.91,21.05,8.26-3.85,4.65-9.28,12.09-13.68,22.2-2.16,4.96-7.48,18.41-7.2,60.73.15,22.54.26,37.91,4.06,38.57,4.04.7,11.15-15.35,14.11-29.62,2.34-11.26.95-15.94,2.13-28.08.83-8.54,2.96-21.07,9.06-36.22,3.59,6.92,8.93,17.77,14.43,31.59,5.75,14.42,7.12,20.64,13.05,33.64,1.55,3.39,14.68,32.21,19.39,30.7,2.85-.91,1.55-12.53.65-20.65-1.92-17.26-6.31-30.02-7.1-32.26-10.3-29.39-26.18-60.55-30.92-69.72,16.02-1.42,20.04-8.26,20.88-9.86,7.17-13.75-11.34-43.44-31.61-42.63-19.81.8-36.02,30.53-28.3,43.36Z"/>
  <circle class="cls-10" cx="1307.65" cy="720.47" r="10.37"/>
  <circle class="cls-10" cx="1337.34" cy="720.47" r="10.37"/>
  <circle class="cls-2" cx="1347.7" cy="693.09" r="2.92"/>
  <line class="cls-2" x1="1346.66" y1="690.16" x2="1343.56" y2="684.24"/>
  <line class="cls-2" x1="1343.56" y1="684.24" x2="1339.36" y2="691.44"/>
  <line class="cls-2" x1="1350.63" y1="692.59" x2="1357.88" y2="693.78"/>
  <line class="cls-2" x1="1351.68" y1="701.83" x2="1357.88" y2="693.78"/>
  <path class="cls-4" d="M130.67,91.94c-.2-.03-.21-.04-1.11-.19-.59-.1-.98-.16-1.47-.28-.71-.17-1.07-.25-1.07-.38,0-.18.73-.38,1.37-.41.32-.02.46.02,1.4.13.66.08.89.1,1.11.12,11.8,1.42,23.57,3.97,23.57,3.97,3.51.76,6.2,1.42,7.47,1.73,6.01,1.49,9.91,2.46,14.9,4.27,5.62,2.04,9.4,3.99,10.21,4.41,2.97,1.54,5.68,2.97,8.87,5.5,1.77,1.4,4.49,3.6,7.07,7.14,1.03,1.41.91,1.49,4.54,8.73,0,0,3.36,6.69,5.11,13.45.19.71.54,2.2-.17,3.58-.11.21-.62,1.2-1.7,1.66-1.35.58-2.76-.03-4.81-.91-1.55-.67-1.58-.92-3.36-1.68-1.25-.53-2.23-.84-2.97-1.06-1-.31-2.89-.87-5.13-1.15-.99-.12-2.64-.27-5.98,0-3.04.25-6.63.76-11.14,1.9-.95.24-3.22.93-7.71,2.29-8.4,2.55-8.47,2.6-9.63,2.87-6.46,1.47-10.42,1.21-11.73,1.1-3.6-.31-5.49-1.11-6.64-1.74-1.34-.72-2.3-1.54-3.44-2.49-.78-.66-2.4-2.08-4.26-4.29-2.11-2.51-3.33-4.63-5.06-7.62-.64-1.1-1.64-2.85-2.8-5.24-1.74-3.6-2.72-6.37-3.84-9.54-.23-.66-.97-3.05-2.44-7.84,0,0-.57-1.87-1.3-5.99-.03-.19-.14-.83-.12-1.63,0-.07,0-.25.03-.5.03-.34.13-1.33.34-1.34.22-.02.47,1.05.49,1.1.07.29.09.52.11.65.06.57.15,1.13.19,1.7.14,1.83,1.25,5.83,1.25,5.83.69,2.48,1.27,4.6,2.32,7.6,1.76,5.05,3.41,8.66,3.79,9.47.85,1.84,1.52,3.3,2.63,5.26,1.96,3.46,3.84,5.92,5.02,7.37,2.3,2.83,3.84,4.09,4.29,4.45.85.68,1.86,1.49,3.3,2.19,1.68.83,3.49,1.29,5.96,1.49,1.03.08,4.64.31,11.61-1.2,3.37-.73,5.93-1.53,9.54-2.65,5.13-1.59,4.61-1.67,7.38-2.41,4.99-1.33,8.86-1.65,12-1.9,3.26-.26,4.9-.18,6.25-.03,1.23.14,3.09.36,5.32,1.2,1,.38,1.99.85,2.93,1.29,1.32.63,1.95.99,3.39,1.63,2.12.95,2.73,1.05,3.38.88.17-.04,1.07-.29,1.56-1.09.59-.97.23-2.18.06-2.75-3.34-10.74-4.65-13.39-4.65-13.39-2.34-4.72-3.51-7.08-4.67-8.65-2.6-3.51-5.26-5.68-6.87-6.97-3.18-2.55-5.89-3.99-8.86-5.56-1.45-.76-5.02-2.58-10.03-4.39-3.99-1.44-7.63-2.34-14.91-4.14-3.65-.9-5.48-1.35-7.44-1.76-9.35-1.96-21.06-3.45-23.41-3.83Z"/>
  <path class="cls-4" d="M158.57,107.81c-.42-.16-1.49-.56-2.69-.18-1.21.38-1.82,1.33-2.47,2.33-.9,1.39-1.12,2.65-1.25,3.48-.26,1.57,0,2.32.13,2.62.12.29.29.68.67.99.65.52,1.46.46,2.17.41.42-.03,1.16-.13,2.04-.54,1.77-.81,2.69-2.18,3.04-2.71.45-.69.9-1.37.99-2.39.04-.38.11-1.38-.49-2.37-.65-1.08-1.68-1.46-2.14-1.63Z"/>
  <path class="cls-4" d="M123.75,95.02c3.21.5,5.77.92,7.33,1.17,0,0,30.47,4.92,42.74,8.62.46.14,2.29.7,4.6,1.46,3.54,1.16,5.04,1.76,5.57,1.97,2.61,1.04,3.85,1.72,4.93,2.42.49.32.93.63,1.69,1.22,1.81,1.4,4.55,3.52,7.79,6.84.59.6,1.75,1.81,3.13,3.43,1.57,1.84,2.59,3.23,3.5,4.48.29.4,1.08,1.48,1.95,3,.11.2.8,1.4.72,1.44-.06.04-.56-.67-1.68-2.23-1.1-1.52-1.75-2.42-2.4-3.28-.32-.41-1.23-1.61-2.48-3.07-.71-.83-1.77-2.03-3.12-3.41-.58-.6-3.58-3.64-7.7-6.8-.74-.57-1.21-.9-1.74-1.24-1.99-1.28-3.7-1.94-4.78-2.34-5.42-2.01-10.23-3.32-10.23-3.32-2.45-.67-4.5-1.18-6.35-1.61-4.64-1.1-8.52-1.91-12.68-2.74-2.46-.49-10.69-2.11-23.57-4.32-2.98-.51-5.41-.92-6.98-1.18-.05,0-.26.02-.4-.12-.04-.03-.13-.13-.11-.23.02-.09.13-.17.27-.17Z"/>
  <path class="cls-4" d="M132.78,136.35c.02-.07.73.13,1.88.28,1.21.16,2.16.17,3.19.18.15,0,1.04,0,2.04-.04,3.83-.18,7.47-1.06,8.24-1.25,1.09-.27,2.15-.6,4.26-1.26,2.26-.7,4.76-1.49,7.87-2.71,1.22-.48,2.65-1.04,4.55-1.9,2.36-1.07,2.91-1.46,4.46-1.95,1.65-.52,2.95-.69,4.27-.86,2.62-.34,4.67-.28,5.99-.23.97.03,2.32.16,5.03.42,2.24.21,3.37.32,4.47.46,2.08.26,3.73.57,7.01,1.19,4.76.9,5.57,1.21,7.38,1.52.1.02.61.1,1.27.29.96.27,1.91.65,1.89.73,0,.03-.16,0-1.09-.13-1.51-.23-1.49-.23-1.59-.25-.86-.15-1.52-.29-1.86-.37-3.1-.67-3.41-.75-4.05-.88-1.09-.22-.97-.16-4.08-.68-3.34-.55-3.46-.62-4.98-.84-2.02-.29-3.54-.42-4.76-.52-3.09-.25-4.99-.41-7.54-.31-2.43.09-4.63.2-7.34,1.08-.44.14-.47.17-3.32,1.38-3.93,1.67-5.9,2.51-7.21,3.01-2.69,1.03-4.75,1.68-6.4,2.2-2.96.93-4.54,1.3-5.35,1.49-1.45.33-2.56.51-2.94.58-.34.06-4.1.66-6.82.48-.96-.06-1.77-.22-1.95-.26-.4-.08-.8-.18-1.24-.32-.51-.16-1.3-.45-1.28-.53Z"/>
  <path class="cls-4" d="M133.88,103.74c.34.56.6.95.8,1.28,0,0,.29.47.82,1.37,1.21,2.06,3.04,6.43,3.52,7.56.64,1.52.95,2.28,1.24,3,.8,2.03,1.35,3.67,2.23,6.28.52,1.54.78,2.31.99,2.99,0,0,2.09,6.66,2.63,11.71.1.93.13,1.48.13,1.48.07,1.41-.02,2.18.07,2.19.11.02.34-.99.44-1.63.11-.66.12-1.09.11-1.34,0-.35-.04-.63-.08-.83-1.01-6.5-2.72-11.72-2.72-11.72-.66-2.01-.65-1.77-1.65-4.76-.6-1.81-.92-2.84-1.57-4.55-.33-.85-.59-1.48-1.12-2.75-.29-.69-1.08-2.57-2.18-4.98-.2-.43-.68-1.48-1.37-2.78-.26-.5-.53-.93-1.05-1.78-.27-.43-.51-.82-.94-1.25-.34-.34-.84-.75-.93-.67-.03.03-.02.13.62,1.18Z"/>
  <path class="cls-4" d="M142.38,109.73c.35.61.65,1.06.76,1.22.59.88.72,1.04,1.07,1.56.35.53.45.74.92,1.52.98,1.64,1.13,1.76,1.84,2.96.13.23.49.87,1.19,2.15,1.64,2.99,1.7,3.11,1.86,3.4.1.18.95,1.78,1.73,3.32,1.14,2.25,2.07,4.1,3.01,6.48.7,1.78,1.67,4.24,2.47,7.44.19.74.49,2.03.62,2.01.11-.02.07-1.02-.05-1.84-.08-.55-.18-.96-.22-1.11-.46-1.76-1.08-3.41-1.18-3.67-.58-1.53-1.06-2.68-1.18-2.96-.58-1.38-1.45-3.45-2.73-6.13-.85-1.78-1.54-3.09-1.73-3.44-.73-1.4-1.33-2.46-1.71-3.13-.46-.81-.94-1.65-1.61-2.77-.1-.16-.69-1.1-1.86-2.96-1-1.59-.97-1.54-1.1-1.76-.31-.51-.65-.99-.95-1.51-.29-.52-.47-.89-.89-1.32-.27-.28-.68-.61-.77-.54-.08.06.15.46.51,1.08Z"/>
  <path class="cls-4" d="M156.67,120.48c-.17-.28-.41-.66-.34-.71.07-.06.45.29.65.49.37.37.58.69.78.99.28.41.6.79.9,1.19.64.87,1.29,1.73,1.94,2.6,1.26,1.69,1.11,1.48,1.5,2.02.42.57.7.96,2.97,4.16.8,1.13,1.36,1.92,2.06,2.98.81,1.22.21.4,1.26,2.1.08.13.35.56.59,1.17.14.35.38,1.03.28,1.08-.1.05-.49-.53-.78-.97-.38-.57-.63-1.01-.63-1.03-.41-.73-.86-1.44-1.28-2.17-.53-.91-.98-1.57-1.88-2.88-.45-.65-1.35-1.88-3.13-4.31-1.32-1.79-1.97-2.69-2.21-3-.26-.34-.69-.9-1.25-1.68-.47-.65-.43-.63-.73-1.03-.21-.28-.43-.56-.69-.99Z"/>
  <path class="cls-4" d="M163.56,116.92c.06-.05.3.13.52.3.12.09.22.17.36.3,2.22,2.16,4.24,4.62,4.24,4.62,1.32,1.61,1.21,1.45,2.6,3.15,1.44,1.76,1.96,2.42,2.61,3.35.31.45.8,1.15,1.37,2.1.56.93.48.9,1.08,1.9.06.1.43.7.84,1.51.15.28.28.55.38.91.13.46.24,1.09.13,1.12-.09.03-.27-.37-1.01-1.81-.28-.55-.53-1.03-.78-1.48-.47-.87-.87-1.51-1.15-1.96-.18-.29-.76-1.21-1.63-2.43-.86-1.2-1.55-2.06-2.26-2.95-1.22-1.52-1.03-1.18-2.73-3.25-.7-.85-2.08-2.54-2.84-3.26-.29-.28-.57-.57-.86-.84-.18-.16-.32-.29-.48-.5-.24-.31-.47-.72-.39-.78Z"/>
  <path class="cls-4" d="M166.45,109.25c.53.48.95.77,1.41,1.09.55.4,1.1.81,1.65,1.21,1.55,1.13,1.47,1.06,1.55,1.12.51.38.88.67,2.64,2.13,1.39,1.16,2.09,1.73,2.38,1.99.33.29,1.33,1.17,2.6,2.37.43.41,1.19,1.14,2.1,2.08.26.26,1.01,1.04,2.05,2.18,1.38,1.52,2.07,2.28,2.86,3.27,1.29,1.64,2.1,2.98,2.78,4.1.89,1.47,1.64,2.71,2.41,4.51.66,1.54,1.01,2.74,1.13,2.71.11-.03-.04-1.02-.25-1.82-.16-.61-.35-1.11-.6-1.67-.29-.67-.72-1.56-1.55-2.99-.34-.59-.84-1.44-1.57-2.54-.49-.73-1.28-1.91-2.43-3.29-.61-.73-.44-.46-2.68-2.95-.94-1.05-1.12-1.25-1.65-1.82-.34-.36-1.12-1.18-2.18-2.18-1.03-.98-1.84-1.68-2.61-2.34-.29-.25-1.02-.86-2.46-2.06-1.58-1.32-1.95-1.61-2.48-2.02-.54-.41-.47-.34-1.6-1.19-.62-.46-1.26-.91-1.86-1.39-.39-.31-.69-.57-1.21-.85-.41-.23-1.07-.55-1.13-.45-.06.09.39.5.72.79Z"/>
  <path class="cls-4" d="M182.45,112.25c.26.27.45.43.82.77.48.43.95.86,1.43,1.3,0,0,.61.55,1.74,1.61.8.74,2.45,2.28,4.05,4.01,1.87,2.02,3.23,3.81,4,4.87,0,0,2.15,2.97,3.96,6.41.4.77.74,1.47,1.05,2.21.22.52.62,1.46.9,2.45.23.82.29,1.06.29,1.06.16.65.19.91.24.91.09,0,.17-.72.12-1.44-.02-.19-.06-.63-.31-1.45-.21-.7-.44-1.25-.68-1.78-.54-1.2-1.04-2.08-1.12-2.22-1.82-3.2-2.73-4.8-3.99-6.55-.34-.47-1.38-1.89-2.89-3.61-1.84-2.1-3.42-3.53-5.77-5.67-1.97-1.79-2.38-2.02-3.08-2.71-.42-.42-.66-.59-1.13-.95-.29-.22-.59-.44-.63-.4-.06.06.52.73.99,1.2Z"/>
  <path class="cls-4" d="M104.26,140.99c.14.09.61.37,1.63.47,1.48.14,2.68-.25,3.18-.43,1.92-.71,4.8-2.52,4.61-4.35-.06-.57-.41-1.07-.49-1.18-.53-.77-1.27-1.07-1.8-1.28-.2-.08-.92-.34-2.08-.37-.96-.02-2.79-.06-4.36,1.19-.2.16-.91.74-1.43,1.76-.35.68-.74,1.42-.55,2.36.23,1.14,1.15,1.75,1.3,1.84Z"/>
  <path class="cls-4" d="M136.54,145.69c-.16.37-.34.74-.49,1.12-.32.77-1.42,2.39-3.07,3.76-2.29,1.91-4.67,2.54-6.18,2.92-.35.09-1.16.28-4.33.6-3.29.33-5.34.42-6.74.52-2.78.2-4.93.62-9.23,1.48-3.51.7-7.38,1.48-12.25,3.1-3.38,1.12-5.48,2.06-6.27,2.43-1.89.87-3.57,1.64-5.52,2.92-.84.55-5.02,3.37-8.59,8.53-1.43,2.07-2.39,3.97-2.98,5.15-1.22,2.45-1.92,4.37-2.08,4.81-.6,1.68-1.35,3.79-1.76,6.63-.32,2.25-.3,3.99-.27,5.85.02,1.33.04,2.96.29,5.12.27,2.4.56,3.16.38,4.88-.14,1.27-.46,2.43-.62,2.96-.32,1.13-.51,1.78-.95,2.55-.2.35-1.65,2.89-3.12,2.63-.72-.13-1.16-.88-1.41-1.3-.39-.67-.47-1.28-.56-2.44-.14-1.7-.2-2.55-.19-3.13.11-3.95,1.19-10.45,1.79-16.16.19-1.82.24-2.65.51-4.56,0,0,.48-3.44,1.19-6.6,1.39-6.22,4.52-13.07,6.45-17.07.5-1.05,2.61-5.02,6.83-12.97,0,0,5.92-11.17,8.96-17.37.71-1.45,1.4-2.9,1.4-2.9,1.13-2.35.92-1.98,1.13-2.39.23-.43.51-.94.8-1.71.13-.34.51-1.36.36-1.44-.18-.09-.95,1.05-1.03,1.17-.46.69-.71,1.24-.9,1.65-.39.82-.84,1.61-1.25,2.43-1.05,2.11-2.05,4.03-2.85,5.58-.91,1.76-1.56,2.94-2.07,3.9-2.03,3.77-3.94,7.49-7.77,14.92-2.66,5.17-4.01,7.79-4.91,9.68-2.37,5-3.51,7.9-4.38,10.43-1.3,3.77-1.82,6.18-1.97,6.87-.36,1.72-.43,2.5-.96,6.29-.44,3.15-.2,1.23-1.27,8.76,0,0-.55,3.85-1.08,9.83-.01.14-.13,1.49-.01,3.27.18,2.9.79,4.03,1.12,4.56.46.73.9,1.43,1.69,1.63,1.58.4,3.21-1.53,3.7-2.11.45-.53,1.52-1.94,2.07-4.92.42-2.3.26-4.07.15-5.43-.51-6.33-.77-9.57-.17-13.2.45-2.71,1.22-4.69,1.89-6.39.4-1.02,1.79-4.45,4.56-8.48,1.55-2.24,2.91-4.22,5.35-6.31,2.35-2.02,4.67-3.26,5.98-3.96,1.56-.83,2.9-1.41,4.32-2.02.68-.29,2.74-1.17,5.05-1.97,4.16-1.44,7.5-2.04,11.87-2.82,1.71-.31,3.96-.71,6.97-1.06,4.07-.48,6.1-.72,8.23-.8,1.54-.06,2.92-.07,4.84-.56,1.66-.42,2.88-.99,3.43-1.25,4.37-2.15,6.12-5.29,6.45-6.2.21-.6.26-1.32.26-1.32.03-.54-.02-1.28-.18-1.3-.1-.01-.2.28-.6,1.2Z"/>
  <path class="cls-4" d="M109.13,119.88c-3.15,5-9.96,16.67-13.78,22.96-1.67,2.75-2.51,4.13-3.6,5.77-1.8,2.71-4.16,6.05-5.66,8.47-.09.14-1.27,2.04-1.27,2.04h0s-.29.8-.2.84c.08.04.46-.57.52-.66.89-1.4,1.89-2.74,2.78-4.14.05-.08.67-1.03,1.92-2.92,2.73-4.16,3.05-4.52,4.41-6.67.85-1.34.44-.74,2.65-4.36,2.27-3.71,2.62-4.2,4.05-6.61,1.34-2.25,1.1-1.93,2.47-4.23,1.1-1.85,1.4-2.29,3.61-5.96.77-1.28,1.44-2.63,2.25-3.88,0-.01.5-.78,1-1.87.14-.31.41-.91.35-.94-.1-.06-1.01,1.37-1.51,2.17Z"/>
  <path class="cls-4" d="M79.75,162.28c-.07-.09.47-.65.63-.81.61-.63,1.16-1.01,1.19-1.03,3.74-2.61,5.62-3.92,7.54-4.75.08-.03,1.18-.47,3.37-1.34,1.55-.62,2.33-.93,2.57-1.02,3.32-1.3,6.76-1.98,8.02-2.22,1.98-.38,3.55-.56,6.69-.92,3.37-.38,3.11-.24,4.58-.48,3.9-.63,6.72-1.79,7.76-2.24,0,0,2.35-1.03,4.89-2.67.66-.43,1.09-.74,1.36-.95.43-.33,1.11-.88,2.24-2.02,1.43-1.44,2.04-2.24,2.09-2.2.07.05-.81,1.44-2.02,2.78-.8.89-1.53,1.51-1.96,1.86-.17.14-.72.58-1.5,1.09-2.09,1.37-4.5,2.37-4.97,2.56-1.87.77-4.77,1.96-8.48,2.42-.62.08-1.73.19-3.94.4-2.88.28-2.66.23-3.42.33-2.26.29-4.04.69-5.62,1.06-1.03.24-1.74.4-2.74.69-.47.14-2.1.62-4.75,1.71-1.68.69-3.15,1.3-5.05,2.31-2.66,1.42-5.57,3.33-6.47,4.16-.42.39-.64.53-1.08.82-.17.11-.86.56-.93.46Z"/>
  <path class="cls-4" d="M100.81,145.22c.62-1.07.72-1.23.87-1.53.31-.61.46-1.03.54-1.01.08.02,0,.59-.1.98-.04.15-.13.47-.33.92-.2.43-.4.73-.46.82-.26.4.02.02-1.34,2.32-.89,1.5-1.4,2.36-2.16,3.58-.57.91-1.08,1.67-2.09,3.18-.06.08-.27.41-.59.82-.48.63-1.19,1.45-1.26,1.39-.09-.06.72-1.33.88-1.57.21-.33.37-.57.39-.6.81-1.17,1.79-2.68,2.03-3.06.65-1.02.34-.64,1.88-3.27.28-.47.96-1.64,1.74-2.98Z"/>
  <path class="cls-4" d="M118.32,127.69c-.59,1.86-.81,2.74-.81,2.74-1.06,4.17-1.58,6.25-1.69,6.64-.6,2.24-1.2,4.01-2.39,7.54-1.04,3.08-1.36,3.79-1.56,4.18-.09.19-.57,1.16-1.07,2.37-.12.3-.2.5-.35.91-.42,1.09-.62,1.63-.57,1.66.07.04.57-.78.99-1.53,1.3-2.32,2.02-4.29,2.11-4.54,2.06-5.73,3.32-10.18,3.32-10.18,1.01-3.57.85-3.47,1.66-6.37.03-.11.37-1.32.67-2.96.05-.25.36-1.99.25-2.01-.03,0-.11.09-.57,1.55Z"/>
  <path class="cls-4" d="M123.23,129.63c0,.52-.02.7-.03.98-.03,1.33.08,4.84.07,7.38-.01,1.81-.11,3.14-.32,5.79-.07.86-.13,1.61-.36,2.57-.03.12-.23.84-.65,2.3-.24.85-.3,1.03-.41,1.34-.15.4-.39,1.02-.84,1.71-.37.58-.64.84-.6.88.06.06.68-.35,1.16-.99.3-.39.44-.73.69-1.29.22-.51.38-.97.55-1.54.16-.54.38-1.26.61-2.32.29-1.37.42-2.49.5-3.35.31-3.2.3-5.91.29-7.32-.03-3.43-.25-3.83-.18-4.91,0-.07.04-.67-.11-1.44-.09-.47-.25-.99-.32-.98-.06,0-.04.33-.05,1.19Z"/>
  <path class="cls-4" d="M121.28,83.49c.94.76,1.68,1.47,2.21,2.03,0,0,1.05,1.11,2.21,2.88.18.27.51.78.62,1.51.03.19.08.53,0,.93-.13.69-.54,1.14-.87,1.5-.59.65-1.1,1.39-1.75,1.99-1.7,1.56-2.75,3.31-8.3,9.09-2.54,2.65-1.64,1.57-6.46,6.46-1.83,1.86-3.45,3.52-5.92,5.61-1.05.89-1.86,1.51-2.44,1.97-3.14,2.44-5,3.51-6.33,4.2-1.29.67-2.26,1.1-3.53,1.15-.87.03-1.59-.13-2.07-.27.22-.26.44-.52.66-.78.54,0,1.41-.02,2.44-.26.98-.23,2.03-.64,6.27-3.62,1.56-1.09,2.35-1.65,3.36-2.47,1.56-1.26,2.7-2.34,3.41-3.01,1.11-1.05,1.29-1.31,3.04-3.01.89-.86,1.4-1.33,1.94-1.85,1.72-1.67,3.14-3.11,4.64-4.65,6.13-6.24,7.04-7.7,8.64-9.2.29-.27.68-.73,1.46-1.65.68-.8.91-1.13.96-1.6.04-.5-.15-.91-.41-1.42-.15-.3-.37-.67-.99-1.39-.54-.62-.99-1.05-1.36-1.39-.6-.56-1.3-1.22-2.1-1.95.22-.27.44-.53.65-.8Z"/>
  <path class="cls-4" d="M122.49,82.03c.14-.16.29-.33.43-.49.29.28.68.73.95,1.38.26.62.31,1.14.33,1.41.04.49,0,.9-.04,1.19-.17-.16-.34-.31-.51-.47.05-.38.08-1.09-.25-1.8-.22-.48-.61-.91-.67-.97-.09-.1-.18-.19-.24-.24Z"/>
  <path class="cls-4" d="M123.68,81.54c.63-.51,1.58-1.18,2.83-1.74.84-.37,3.67-1.52,7.27-.94,2.36.38,4.04,1.35,4.81,1.8,1.42.83,3,2.11,3.25,2.31.35.28.64.53.83.7-.73.81-1.94,1.97-3.72,2.93-2.83,1.53-5.4,1.64-6.03,1.65-3.59.08-6.16-1.37-7.03-1.87-.49-.29-.88-.55-1.15-.75.04-.22.08-.44.11-.66.25.17.6.4,1.02.64.2.12,1.46.82,2.87,1.26,2.5.77,4.92.51,5.32.47,3.97-.46,6.65-2.69,7.62-3.58-.43-.4-1.03-.92-1.81-1.46-.8-.56-2.43-1.67-4.74-2.29-1-.27-4.11-1.05-7.64.24-1.49.54-2.59,1.28-3.28,1.83-.18-.18-.35-.36-.53-.54Z"/>
  <path class="cls-4" d="M124.53,82.81c.03.24.06.48.09.72,2.22.28,4.13.48,5.63.63,4.02.38,3.69.2,6.4.42.18.01.59.05,1.13.02.97-.06,1.75-.28,2.23-.45-.38-.04-.99-.09-1.76-.14-1.03-.07-1.78-.08-2.01-.09-2.14-.06-5.07-.37-7.8-.65-.97-.1-2.31-.25-3.92-.44Z"/>
  <path class="cls-4" d="M110.65,74.99c.07.2.07.2.37,1.06.2.57.33.94.53,1.41.29.67.43,1.01.55.99.18-.03.25-.78.18-1.42-.04-.31-.1-.45-.36-1.36-.19-.64-.25-.86-.31-1.08-3.39-11.39-7.89-22.56-7.89-22.56-1.34-3.33-2.45-5.87-2.97-7.07-2.48-5.67-4.09-9.35-6.72-13.96-2.96-5.19-5.51-8.59-6.07-9.32-2.02-2.66-3.88-5.1-6.91-7.81-1.68-1.51-4.3-3.82-8.24-5.77-1.56-.77-1.63-.65-9.37-3,0,0-7.16-2.18-14.12-2.77-.74-.06-2.26-.16-3.5.77-.19.15-1.08.81-1.35,1.95-.34,1.43.49,2.72,1.71,4.59.92,1.41,1.18,1.41,2.22,3.03.74,1.14,1.2,2.06,1.55,2.75.47.94,1.35,2.7,2,4.86.29.96.71,2.56,1.01,5.89.27,3.04.37,6.67,0,11.3-.08.98-.37,3.33-.96,7.99-1.1,8.71-1.14,8.79-1.2,9.97-.36,6.62.56,10.48.89,11.74.91,3.49,2.02,5.22,2.84,6.26.94,1.2,1.9,2.01,3.03,2.97.78.66,2.45,2.02,4.95,3.47,2.83,1.65,5.12,2.5,8.37,3.7,1.2.44,3.08,1.14,5.64,1.87,3.84,1.11,6.73,1.61,10.06,2.18.69.12,3.17.44,8.13,1.08,0,0,1.94.25,6.12.27.19,0,.84,0,1.63-.15.07-.01.25-.05.49-.11.32-.09,1.28-.35,1.27-.56-.02-.22-1.11-.29-1.17-.29-.3-.02-.53,0-.66,0-.57.04-1.14.05-1.71.1-1.83.17-5.96-.25-5.96-.25-2.56-.26-4.75-.48-7.88-1.01-5.28-.89-9.11-1.9-9.98-2.13-1.96-.52-3.51-.94-5.63-1.7-3.74-1.35-6.49-2.78-8.11-3.7-3.17-1.79-4.68-3.09-5.11-3.48-.81-.72-1.78-1.58-2.72-2.88-1.1-1.52-1.86-3.22-2.47-5.62-.25-1-1.09-4.52-.78-11.64.15-3.45.5-6.11,1-9.85.7-5.32.87-4.82,1.13-7.68.47-5.14.13-9.01-.15-12.15-.3-3.26-.65-4.86-1.03-6.17-.34-1.19-.88-2.99-2.08-5.04-.54-.92-1.17-1.82-1.77-2.67-.84-1.2-1.3-1.75-2.18-3.06-1.29-1.93-1.5-2.52-1.44-3.18.01-.18.11-1.1.81-1.72.86-.75,2.11-.6,2.7-.52,11.15,1.48,13.98,2.32,13.98,2.32,5.05,1.51,7.57,2.27,9.32,3.15,3.9,1.97,6.49,4.23,8.03,5.6,3.05,2.7,4.93,5.13,6.97,7.79.99,1.3,3.39,4.51,6.02,9.15,2.1,3.69,3.59,7.13,6.59,14,1.5,3.45,2.26,5.17,2.99,7.04,3.51,8.89,6.96,20.18,7.73,22.43Z"/>
  <path class="cls-4" d="M90.3,50.17c.22.38.8,1.38.63,2.62-.17,1.25-1,2.02-1.88,2.83-1.21,1.12-2.42,1.55-3.22,1.82-1.5.52-2.29.38-2.61.31-.31-.07-.71-.17-1.09-.5-.62-.55-.7-1.37-.77-2.07-.04-.42-.06-1.17.18-2.1.5-1.88,1.7-3.02,2.16-3.45.6-.56,1.2-1.11,2.19-1.38.37-.1,1.34-.34,2.42.08,1.17.46,1.73,1.41,1.97,1.83Z"/>
  <path class="cls-4" d="M108.79,82.33c-1.04-3.08-1.88-5.54-2.39-7.02,0,0-9.99-29.2-15.71-40.67-.22-.43-1.08-2.14-2.22-4.29-1.74-3.29-2.58-4.67-2.88-5.16-1.47-2.39-2.35-3.51-3.22-4.45-.4-.43-.78-.81-1.49-1.46-1.68-1.55-4.24-3.89-8.06-6.52-.69-.48-2.08-1.42-3.91-2.5-2.08-1.24-3.62-2.01-5.01-2.7-.44-.22-1.65-.81-3.29-1.41-.22-.08-1.51-.55-1.54-.47-.03.06.76.43,2.48,1.28,1.68.83,2.68,1.32,3.63,1.82.46.24,1.79.94,3.44,1.93.94.56,2.3,1.4,3.89,2.5.69.47,4.19,2.91,8,6.44.69.64,1.09,1.04,1.52,1.5,1.6,1.75,2.53,3.32,3.11,4.32,2.89,5,5,9.52,5,9.52,1.07,2.3,1.92,4.24,2.66,5.98,1.87,4.39,3.32,8.07,4.84,12.04.9,2.34,3.88,10.18,8.24,22.5,1.01,2.85,1.82,5.18,2.34,6.68,0,.05.02.26.18.38.04.03.15.11.25.07.09-.04.14-.16.12-.29Z"/>
  <path class="cls-4" d="M66.53,80.4c.07-.03-.25-.7-.59-1.8-.36-1.16-.53-2.11-.71-3.12-.03-.14-.18-1.02-.31-2.02-.47-3.81-.21-7.54-.16-8.33.08-1.12.23-2.22.52-4.41.31-2.34.67-4.95,1.34-8.21.26-1.28.58-2.79,1.11-4.81.66-2.5.95-3.12,1.17-4.73.24-1.72.18-3.02.13-4.36-.11-2.64-.51-4.65-.78-5.94-.2-.95-.55-2.26-1.26-4.89-.59-2.18-.88-3.26-1.2-4.33-.61-2.01-1.19-3.58-2.35-6.71-1.69-4.54-2.14-5.29-2.75-7.01-.03-.09-.2-.58-.5-1.2-.42-.9-.96-1.78-1.04-1.74-.03.01.02.16.32,1.05.48,1.45.48,1.43.51,1.53.29.83.55,1.45.67,1.77,1.19,2.94,1.32,3.24,1.56,3.84.41,1.03.33.93,1.35,3.91,1.1,3.2,1.19,3.31,1.67,4.77.62,1.94,1.01,3.42,1.31,4.61.77,3.01,1.24,4.85,1.58,7.38.32,2.41.59,4.59.17,7.42-.07.46-.09.49-.8,3.5-.98,4.16-1.47,6.24-1.75,7.62-.57,2.82-.86,4.97-1.09,6.68-.42,3.08-.52,4.69-.56,5.53-.08,1.49-.07,2.61-.07,2.99,0,.35.04,4.15.68,6.81.22.93.52,1.7.58,1.88.15.38.31.76.52,1.17.25.48.66,1.2.74,1.17Z"/>
  <path class="cls-4" d="M98.48,73.82c-.61-.24-1.04-.43-1.4-.57,0,0-.51-.21-1.49-.58-2.24-.84-6.85-1.92-8.05-2.19-1.6-.37-2.41-.56-3.16-.71-2.14-.44-3.85-.71-6.57-1.14-1.6-.25-2.41-.38-3.12-.47,0,0-6.92-.94-11.99-.61-.93.06-1.48.13-1.48.13-1.4.17-2.15.39-2.18.3-.03-.11.92-.5,1.53-.71.63-.22,1.05-.3,1.3-.33.34-.05.63-.06.84-.07,6.58-.1,12.01.7,12.01.7,2.09.31,1.86.35,4.97.82,1.88.29,2.95.42,4.75.78.89.18,1.56.33,2.9.64.73.17,2.71.63,5.28,1.31.46.12,1.58.42,2.97.88.53.17,1,.36,1.94.74.47.19.9.37,1.39.71.4.28.88.71.82.81-.02.04-.12.04-1.26-.41Z"/>
  <path class="cls-4" d="M91.14,66.45c-.66-.25-1.16-.47-1.33-.54-.97-.43-1.15-.53-1.72-.79-.59-.26-.8-.32-1.65-.65-1.78-.69-1.93-.82-3.23-1.31-.24-.09-.94-.33-2.32-.81-3.22-1.11-3.35-1.15-3.67-1.26-.2-.07-1.92-.64-3.56-1.14-2.41-.74-4.39-1.35-6.9-1.87-1.88-.39-4.46-.93-7.75-1.18-.76-.06-2.08-.14-2.08-.27,0-.11.99-.24,1.82-.26.56-.02.98.02,1.13.03,1.82.15,3.54.49,3.82.54,1.61.32,2.82.6,3.12.66,1.46.34,3.65.84,6.5,1.66,1.9.54,3.3,1,3.68,1.12,1.5.49,2.65.9,3.37,1.16.87.31,1.79.64,3,1.12.18.07,1.2.49,3.24,1.33,1.74.72,1.68.7,1.92.79.55.22,1.09.48,1.65.68.56.2.96.31,1.45.66.32.22.72.57.66.66-.05.09-.47-.07-1.15-.32Z"/>
  <path class="cls-4" d="M78.13,54.18c.31.12.72.29.76.22.04-.08-.37-.4-.59-.56-.43-.3-.78-.45-1.1-.61-.45-.21-.88-.46-1.32-.69-.96-.49-1.93-.98-2.89-1.47-1.88-.95-1.65-.84-2.24-1.14-.63-.32-1.07-.53-4.6-2.23-1.25-.6-2.12-1.02-3.28-1.53-1.34-.59-.43-.14-2.28-.89-.14-.06-.61-.25-1.25-.38-.36-.08-1.08-.2-1.11-.1-.03.1.61.39,1.09.61.63.28,1.11.45,1.12.45.79.28,1.57.6,2.35.89.99.37,1.71.7,3.15,1.37.72.33,2.08,1.01,4.78,2.36,1.99.99,2.98,1.49,3.33,1.67.38.2,1.01.53,1.87.95.72.35.69.32,1.14.55.31.16.62.33,1.09.51Z"/>
  <path class="cls-4" d="M80.48,46.79c.04-.07-.18-.27-.38-.47-.1-.1-.2-.19-.36-.3-2.5-1.83-5.27-3.4-5.27-3.4-1.81-1.03-1.63-.94-3.54-2.03-1.97-1.12-2.72-1.52-3.74-2-.5-.23-1.27-.59-2.31-1-1.01-.39-.97-.32-2.05-.74-.1-.04-.77-.3-1.63-.58-.3-.1-.59-.18-.96-.22-.48-.06-1.11-.05-1.13.06-.01.09.41.2,1.95.69.59.19,1.1.35,1.59.52.94.32,1.63.6,2.12.8.32.13,1.32.54,2.67,1.2,1.33.64,2.29,1.18,3.29,1.73,1.71.95,1.34.81,3.66,2.14.96.55,2.85,1.62,3.69,2.25.32.24.66.46.98.71.19.15.34.26.58.39.34.18.79.34.84.25Z"/>
  <path class="cls-4" d="M87.55,42.65c-.56-.45-.92-.81-1.32-1.2-.49-.48-.98-.95-1.47-1.42-1.37-1.34-1.3-1.27-1.37-1.33-.46-.44-.81-.75-2.55-2.24-1.37-1.18-2.06-1.76-2.36-2.01-.34-.28-1.38-1.12-2.78-2.16-.48-.36-1.32-.98-2.41-1.72-.3-.21-1.2-.82-2.5-1.65-1.73-1.11-2.6-1.66-3.71-2.26-1.83-1-3.3-1.57-4.51-2.05-1.6-.63-2.95-1.16-4.85-1.61-1.63-.39-2.87-.53-2.86-.66.01-.11,1.01-.13,1.83-.06.63.05,1.15.16,1.75.31.71.18,1.66.45,3.21,1.02.64.24,1.57.58,2.77,1.12.81.36,2.1.94,3.65,1.84.82.47.53.35,3.36,2.14,1.19.75,1.42.89,2.07,1.32.41.27,1.35.91,2.52,1.78,1.14.85,1.97,1.53,2.75,2.17.3.25,1.01.86,2.45,2.08,1.57,1.34,1.92,1.65,2.41,2.1.5.46.41.41,1.44,1.38.56.53,1.11,1.09,1.69,1.6.37.33.67.59,1.05,1.05.3.37.72.96.63,1.04-.08.08-.56-.3-.9-.57Z"/>
  <path class="cls-4" d="M81.89,27.39c-.31-.22-.5-.37-.89-.68-.5-.4-1.01-.79-1.52-1.19,0,0-.64-.51-1.88-1.45-.87-.66-2.66-2.03-4.63-3.31-2.3-1.51-4.3-2.54-5.47-3.12,0,0-3.29-1.62-6.99-2.82-.82-.27-1.57-.48-2.35-.66-.55-.13-1.54-.36-2.57-.47-.85-.09-1.09-.11-1.09-.11-.67-.05-.93-.03-.94-.09-.01-.09.68-.29,1.4-.36.19-.02.63-.05,1.48.06.72.09,1.31.22,1.87.37,1.28.33,2.23.68,2.37.73,3.46,1.25,5.19,1.88,7.13,2.83.52.25,2.09,1.04,4.05,2.24,2.38,1.46,4.05,2.77,6.57,4.73,2.1,1.64,2.4,2.01,3.19,2.58.48.35.7.55,1.13.96.26.25.54.5.5.55-.05.07-.8-.39-1.35-.78Z"/>
  <path class="cls-4" d="M66.76,109.3c-.11-.12-.47-.54-.73-1.53-.39-1.44-.21-2.68-.11-3.21.37-2.01,1.67-5.16,3.51-5.27.57-.04,1.12.22,1.25.28.85.39,1.27,1.08,1.56,1.56.11.19.49.84.71,1.99.18.94.53,2.74-.43,4.5-.12.22-.58,1.02-1.49,1.71-.61.46-1.28.97-2.23.94-1.16-.03-1.91-.84-2.03-.97Z"/>
  <path class="cls-4" d="M56.68,78.28c-.34.22-.67.46-1.02.67-.7.45-2.12,1.8-3.19,3.66-1.5,2.58-1.72,5.03-1.84,6.58-.03.36-.08,1.19.14,4.37.23,3.3.49,5.34.63,6.73.28,2.78.22,4.97.1,9.35-.09,3.58-.21,7.52-.99,12.6-.54,3.52-1.11,5.75-1.33,6.59-.53,2.01-1.01,3.8-1.95,5.94-.4.92-2.47,5.51-6.95,9.91-1.8,1.76-3.51,3.02-4.57,3.8-2.21,1.62-3.98,2.63-4.39,2.86-1.55.88-3.51,1.97-6.24,2.85-2.16.7-3.88.97-5.72,1.26-1.31.21-2.92.46-5.09.58-2.41.13-3.21-.02-4.88.45-1.23.35-2.32.87-2.82,1.11-1.05.51-1.67.8-2.36,1.37-.31.26-2.57,2.12-2.06,3.52.25.69,1.06,1,1.51,1.17.72.28,1.34.25,2.5.14,1.7-.15,2.55-.23,3.12-.34,3.87-.78,10.1-2.94,15.62-4.49,1.76-.5,2.58-.69,4.41-1.27,0,0,3.31-1.05,6.31-2.28,5.89-2.42,12.11-6.67,15.73-9.24.95-.67,4.51-3.42,11.63-8.92,0,0,10.01-7.72,15.6-11.76,1.31-.94,2.62-1.87,2.62-1.87,1.38-.89,1.53-1.01,2.16-1.52.19-.15.48-.4.92-.68.46-.3,1.42-.84,1.55-.68.12.15-.49.84-.97,1.28-.45.41-.84.65-1.04.79-.22.14-.05.08-2.18,1.64-1.9,1.39-3.62,2.7-5.02,3.76-1.58,1.2-2.64,2.03-3.5,2.7-3.38,2.64-6.71,5.15-13.39,10.17-4.65,3.49-7,5.27-8.71,6.47-4.53,3.18-7.2,4.8-9.54,6.08-3.5,1.92-5.78,2.84-6.44,3.1-1.63.65-2.39.85-6.04,2.01-3.03.96-1.18.4-8.42,2.73,0,0-3.7,1.19-9.51,2.73-.14.04-1.45.38-3.22.57-2.89.31-4.11-.09-4.69-.33-.8-.33-1.57-.64-1.9-1.39-.66-1.49.97-3.43,1.45-4.01.45-.53,1.65-1.83,4.5-2.87,2.2-.8,3.97-.94,5.32-1.06,6.33-.57,9.57-.86,13.04-2.06,2.59-.9,4.42-2,5.98-2.94.94-.57,4.09-2.51,7.58-5.93,1.95-1.9,3.66-3.58,5.32-6.34,1.59-2.66,2.42-5.15,2.89-6.57.56-1.68.9-3.09,1.26-4.6.17-.72.69-2.9,1.09-5.31.71-4.34.74-7.74.78-12.18.01-1.74.03-4.02-.13-7.05-.22-4.09-.32-6.14-.6-8.24-.2-1.53-.42-2.89-.27-4.87.14-1.71.49-3.01.66-3.59,1.38-4.67,4.18-6.93,5.02-7.4.56-.31,1.26-.47,1.26-.47.53-.12,1.27-.2,1.31-.04.03.1-.24.25-1.08.79Z"/>
  <path class="cls-4" d="M86.75,100.93c-4.4,3.95-14.75,12.63-20.31,17.46-2.43,2.11-3.64,3.17-5.08,4.52-2.37,2.23-5.26,5.12-7.39,7.01-.12.11-1.8,1.59-1.8,1.59h0s-.74.42-.79.34c-.05-.07.48-.55.56-.62,1.23-1.12,2.38-2.33,3.62-3.44.07-.06.9-.84,2.56-2.38,3.64-3.39,3.94-3.77,5.83-5.47,1.18-1.06.66-.55,3.85-3.35,3.27-2.86,3.7-3.29,5.83-5.11,1.99-1.7,1.72-1.41,3.75-3.15,1.64-1.4,2.03-1.77,5.27-4.56,1.13-.98,2.35-1.86,3.45-2.88.01-.01.68-.63,1.68-1.31.28-.19.82-.56.87-.51.07.09-1.18,1.22-1.88,1.86Z"/>
  <path class="cls-4" d="M49.92,137.05c.1.06.56-.57.69-.76.51-.71.8-1.31.82-1.35,1.94-4.13,2.91-6.2,3.41-8.24.02-.08.27-1.24.76-3.55.35-1.63.52-2.45.57-2.7.72-3.49.81-6.99.84-8.28.04-2.01-.04-3.59-.22-6.75-.19-3.38-.29-3.1-.3-4.59-.04-3.95.63-6.92.9-8.03,0,0,.61-2.49,1.81-5.27.31-.73.55-1.2.71-1.5.25-.48.68-1.24,1.61-2.55,1.17-1.65,1.87-2.39,1.82-2.43-.07-.06-1.28,1.04-2.4,2.46-.74.94-1.23,1.76-1.5,2.25-.11.19-.45.8-.82,1.66-1,2.3-1.58,4.84-1.69,5.33-.44,1.97-1.12,5.03-.95,8.77.03.63.11,1.73.27,3.95.21,2.89.22,2.66.25,3.43.1,2.28,0,4.09-.1,5.72-.06,1.05-.1,1.79-.22,2.82-.06.49-.26,2.18-.89,4.97-.4,1.78-.75,3.32-1.43,5.37-.95,2.86-2.34,6.06-3.01,7.08-.32.48-.42.72-.62,1.2-.08.19-.4.94-.3,1Z"/>
  <path class="cls-4" d="M63.17,113.41c.94-.79,1.09-.91,1.37-1.11.55-.41.93-.63.9-.7-.04-.08-.58.1-.95.26-.14.06-.45.2-.85.48-.39.27-.65.52-.73.59-.35.33-.03-.01-2.06,1.71-1.33,1.13-2.09,1.77-3.16,2.73-.8.72-1.46,1.34-2.78,2.6-.07.07-.35.34-.71.72-.54.58-1.23,1.41-1.16,1.48.08.08,1.19-.94,1.4-1.13.29-.26.49-.46.52-.49,1.02-.99,2.34-2.21,2.67-2.52.89-.82.58-.44,2.9-2.4.42-.35,1.45-1.22,2.64-2.22Z"/>
  <path class="cls-4" d="M77.5,93.2c-1.73.89-2.57,1.26-2.57,1.26-3.93,1.74-5.89,2.62-6.26,2.78-2.11.97-3.75,1.85-7.02,3.63-2.86,1.54-3.5,1.98-3.86,2.24-.18.13-1.05.76-2.16,1.45-.27.17-.46.28-.83.5-1,.59-1.5.89-1.54.84-.05-.07.67-.7,1.34-1.24,2.07-1.67,3.89-2.71,4.12-2.84,5.3-3,9.47-4.99,9.47-4.99,3.35-1.6,3.28-1.42,6-2.71.1-.05,1.24-.59,2.81-1.16.24-.09,1.9-.69,1.94-.59.01.03-.07.12-1.43.82Z"/>
  <path class="cls-4" d="M74.76,88.68c-.51.1-.69.14-.96.2-1.31.26-4.78.73-7.28,1.18-1.78.32-3.07.64-5.65,1.29-.84.21-1.57.4-2.47.78-.11.05-.79.37-2.15,1.03-.8.38-.97.47-1.25.63-.37.22-.94.56-1.55,1.11-.51.46-.72.78-.77.74-.07-.05.24-.73.78-1.31.33-.36.64-.56,1.16-.89.46-.3.89-.53,1.43-.8.5-.25,1.18-.59,2.18-.99,1.3-.52,2.38-.83,3.22-1.06,3.1-.85,5.77-1.29,7.16-1.52,3.39-.55,3.81-.4,4.87-.65.07-.02.66-.15,1.43-.14.48,0,1.02.08,1.02.15,0,.06-.32.09-1.16.25Z"/>
  <path class="cls-4" d="M120.36,82.77c-.64-.51-1.36-1.1-2.17-1.78,0,0,0,0,0,0,0,0-1.34-.88-3.21-1.7-.29-.13-.86-.37-1.6-.36-.2,0-.54.01-.92.15-.66.24-1.03.73-1.33,1.11-.54.7-1.19,1.31-1.66,2.06-1.25,1.94-2.79,3.27-7.56,9.72-1.1,1.49-2.49,3.48-5.28,7.46-1.38,1.98-2.24,3.22-3.32,4.92-.62.98-1.59,2.52-2.74,4.6-.2.36-1.84,3.37-3.22,7.19-.36,1-.84,2.44-.43,4.11.14.55.34.99.49,1.28.23-.27.46-.53.69-.8-.09-.31-.21-.8-.25-1.39-.06-.85.02-2.02,1.12-4.62.11-.26.43-1,1.21-2.55,1.15-2.26,2.14-3.96,2.98-5.4.93-1.59,1.64-2.73,1.91-3.16.57-.91,1.13-1.79,1.88-2.88.82-1.18,1.44-1.99,1.83-2.51,1.52-2.01,1.81-2.61,3.79-5.36,5.12-7.09,6.4-8.24,7.61-10.07.22-.33.61-.79,1.38-1.72.67-.8.96-1.09,1.42-1.21.49-.13.92,0,1.47.16.32.1.73.25,1.53.74.17.1.33.2.48.3.44.29.78.54,1.13.8.9.68,1.82,1.44,2.09,1.67.22-.25.44-.5.65-.75Z"/>
  <path class="cls-4" d="M121.73,81.32c.13-.15.26-.31.39-.46-.05-.03-.12-.08-.2-.13-.25-.15-.69-.42-1.22-.56-.6-.16-1.09-.12-1.45-.09-.49.04-.89.15-1.17.25.18.14.37.28.55.42.37-.11,1.06-.26,1.82-.06.51.14,1.03.47,1.07.5.09.06.16.1.2.14Z"/>
  <path class="cls-4" d="M122.08,80.12c.4-.71.9-1.75,1.24-3.09.23-.89.88-3.88-.3-7.32-.78-2.26-2.01-3.75-2.58-4.43-1.06-1.26-2.59-2.6-2.83-2.81-.34-.3-.63-.54-.83-.7-.67.85-1.61,2.25-2.26,4.16-1.03,3.05-.7,5.6-.61,6.22.52,3.55,2.39,5.85,3.03,6.62.36.44.7.78.93,1.01.21-.07.42-.15.63-.22-.21-.22-.49-.52-.8-.9-.15-.18-1.06-1.3-1.72-2.61-1.18-2.33-1.34-4.77-1.36-5.16-.22-3.99,1.52-7.01,2.24-8.12.47.36,1.08.86,1.75,1.53.68.69,2.06,2.11,3.06,4.28.43.94,1.72,3.87,1.05,7.57-.28,1.56-.83,2.77-1.25,3.54.21.14.41.29.62.43Z"/>
  <path class="cls-4" d="M120.68,79.5c-.24.01-.48.02-.72.03-.66-2.14-1.17-3.99-1.57-5.45-1.05-3.9-.82-3.6-1.49-6.24-.04-.17-.15-.57-.21-1.11-.11-.97-.02-1.77.06-2.27.1.37.26.96.44,1.71.24,1,.38,1.74.43,1.97.42,2.09,1.22,4.94,1.96,7.58.26.94.63,2.23,1.1,3.78Z"/>
  <path class="cls-4" d="M97.48,103.01c.56.99,1.48,2.36,2.94,3.67,1.76,1.58,3.54,2.41,4.69,2.84"/>
  <path class="cls-4" d="M95.58,106.41c.48.86,1.33,2.15,2.75,3.37,1.42,1.21,2.82,1.85,3.75,2.19"/>
  <path class="cls-4" d="M93,109.82c.28.72.97,2.17,2.48,3.43,1.54,1.29,3.12,1.71,3.88,1.85"/>
  <path class="cls-4" d="M110.82,82.95c1.77.57,3.16,1.28,4.12,1.83,3.24,1.88,5.14,4.15,5.76,4.93,1,1.26,1.67,2.43,2.1,3.26"/>
  <ellipse class="cls-3" cx="1331.78" cy="139.38" rx="39.36" ry="37.31"/>
  <ellipse class="cls-3" cx="1346.35" cy="89.48" rx="49.56" ry="40.71" transform="translate(63.5 507.78) rotate(-21.86)"/>
  <path class="cls-1" d="M1316.01,147.09c1.26,22.32-7.46,47.62-15.4,47.55-8.03-.07-16.12-26.11-14.71-48.64,1-16.07,7.24-36.89,14.51-37,7.31-.11,14.62,20.73,15.6,38.09Z"/>
  <circle class="cls-1" cx="1299.05" cy="86.24" r="38.02"/>
  <path class="cls-8" d="M1286.89,102.13c.61,8.18-1.16,14.92-2.65,19.14-3.27-1.36-9-4.27-14.06-10.16-3.39-3.95-5.32-7.88-6.43-10.71-.51-1.83-1.56-6.63.53-11.92,1.88-4.79,6.69-10.87,11.49-10.48,6.87.56,10.47,15.46,11.12,24.12Z"/>
  <path class="cls-8" d="M1331.51,99.42c.39,3.53-.25,6.54-.91,8.64-1.79,2.48-4.63,5.81-8.84,8.84-5.72,4.12-11.31,5.78-14.73,6.51-2.04-4.08-5.76-13.04-4.09-24.07.37-2.44,2.67-17.8,10.61-19.33,7.59-1.46,16.84,9.22,17.96,19.4Z"/>
  <g>
    <path class="cls-10" d="M1323.56,55.19c1.26-3.43,2.67-6.82,4.57-9.95s4.28-5.72,7.09-8,5.85-4.1,8.89-5.95c3.51-2.13,7-4.28,10.47-6.47,4.02-2.53,8.03-5.09,12.03-7.65,2.7-1.73.2-6.06-2.52-4.32-7.34,4.69-14.69,9.37-22.14,13.89-6.62,4.02-13.11,8.27-17.45,14.86-2.49,3.78-4.21,8.02-5.77,12.26-.47,1.27.52,2.74,1.75,3.08,1.39.38,2.61-.47,3.08-1.75h0Z"/>
    <path class="cls-10" d="M1353.48,15.17c-.23.51-.45.89-.92,1.19l3.03,3.93c2.4-2.28,4.79-4.56,7.19-6.84s-1.18-5.72-3.54-3.54c-3.08,2.86-5.98,5.89-8.71,9.08h3.54c-1.29-1.3-1.94-2.9-1.95-4.73,0-2.4-3.49-3.51-4.66-1.26-1.68,3.21-3.63,6.29-5.91,9.11l3.93,3.03c1.47-3.17,3.27-6.14,5.4-8.91l-4.32-2.52c-3.59,4.96-6.89,10.11-9.91,15.44l4.57.6c-.62-3.12-.8-6.28-.63-9.46.07-1.23-1-2.32-2.17-2.46-1.3-.15-2.3.59-2.74,1.79-1.84,4.93-4.31,9.59-7.27,13.94l4.66,1.26c.04-2.03.09-4.06.13-6.08.03-1.59-1.63-2.89-3.16-2.41-2.17.67-3.55,2.39-4.2,4.52s-.15,4.24-.84,6.25h4.82c-.83-3-1.99-5.9-3.42-8.66-.95-1.83-3.28-1.4-4.32,0-1.48,1.98-1.78,4.48-2.17,6.84-.45,2.73-.91,5.46-1.36,8.18h4.82c-.42-2.5-1.3-4.89-2.53-7.1-1-1.8-4.13-1.54-4.57.6-.6,2.94.06,5.7,1.1,8.45.83,2.19,2.21,4.8,1.87,7.22-.19,1.33.33,2.69,1.75,3.08,1.25.34,2.78-.42,3.08-1.75.38-1.72,1.9-2.72,3.45-3.37,2.42-1.02,4.99-1.5,7.3-2.79,2.08-1.17,1.26-4.84-1.26-4.66-1.54.11-3.08.14-4.62.05-.73-.04-1.46-.1-2.18-.19-.26-.03-.52-.07-.78-.12-.24-.04-.48-.08-.72-.13-.42-.12-.35,0,.19.39l.34,1.26c-.75.98-.84,1.27-.27.86-.09.15.06.11.46-.12.45-.16.93-.27,1.39-.4,1-.29,2.01-.58,3.01-.87,2.08-.6,4.17-1.2,6.25-1.8,3.11-.9,1.81-5.49-1.33-4.82-.78.17-1.57.15-2.34-.06-.16-.05-.32-.1-.48-.14.64.73.73,1.29.26,1.69-.13.11-.14.13-.05.07.23-.07.47-.13.71-.17,2.1-.41,4.3-.49,6.43-.54,2.65-.05,3.17-3.24,1.26-4.66s-3.88-2.64-5.98-3.72l-1.26,4.66c5.1.33,10.21-.09,15.21-1.16,1.2-.26,1.96-1.59,1.79-2.74-.19-1.29-1.18-2.06-2.46-2.17-2.41-.21-4.62-1.13-6.59-2.51l-1.26,4.66c5.13-.21,10.25-.42,15.38-.64,2.22-.09,3.22-2.64,1.77-4.27-2.26-2.53-5.1-4.34-8.28-5.48l-1.33,4.82c4.12,1.37,8.44,2.09,12.79,2.18,1.82.04,3.22-2.18,2.16-3.76-1.3-1.95-2.81-3.72-4.57-5.27l-1.77,4.27c4.34.43,8.75-.05,12.91-1.37,2.58-.82,2.27-5.06-.66-4.91-3.25.17-6.46-.05-9.64-.72l.6,4.57c3.1-1.81,5.31-4.58,6.54-7.93.88-2.39-2.52-4.16-4.18-2.43-1.78,1.86-3.05,4.1-3.67,6.61-.41,1.66.78,3.05,2.41,3.16,4.53.33,9.18-1.66,12.03-5.2.71-.88,1-2,.39-3.03-.51-.88-1.81-1.55-2.82-1.15-2.81,1.13-5.51,2.46-8.06,4.1-2.7,1.73-.19,6.06,2.52,4.32,2.18-1.4,4.46-2.63,6.87-3.59l-2.43-4.18c-2.12,2.63-5.12,3.98-8.49,3.74l2.41,3.16c.42-1.69,1.18-3.14,2.38-4.4l-4.18-2.43c-.78,2.11-2.31,3.82-4.24,4.94-1.77,1.03-1.55,4.12.6,4.57,3.61.76,7.29,1.08,10.97.89l-.66-4.91c-3.78,1.2-7.64,1.58-11.58,1.19-2.14-.21-3.33,2.89-1.77,4.27,1.44,1.27,2.72,2.66,3.79,4.26l2.16-3.76c-3.92-.08-7.73-.76-11.46-2-1.28-.43-2.73.49-3.08,1.75-.38,1.39.47,2.62,1.75,3.08,2.38.85,4.4,2.32,6.07,4.19l1.77-4.27c-5.13.21-10.25.42-15.38.64-2.57.11-3.28,3.25-1.26,4.66,2.72,1.89,5.83,2.9,9.12,3.19l-.66-4.91c-4.57.98-9.22,1.28-13.88.98-2.46-.16-3.43,3.55-1.26,4.66s4.09,2.31,5.98,3.72l1.26-4.66c-2.32.05-4.63.25-6.92.58-1.86.27-3.64.9-4.51,2.71-.96,1.99-.11,4.17,1.85,5.1s4.24,1.02,6.38.57l-1.33-4.82c-2.55.73-5.09,1.47-7.64,2.2-2.2.63-5.21.99-6.46,3.2-.67,1.18-.51,2.78.43,3.77s2.23,1.16,3.5,1.36c2.8.42,5.61.56,8.44.36l-1.26-4.66c-2.52,1.42-5.48,1.79-8.04,3.15-2.37,1.25-4.41,3.33-5.01,6l4.82,1.33c.43-3-.26-5.7-1.33-8.49-.84-2.2-2.12-4.75-1.63-7.17l-4.57.6c1.04,1.86,1.68,3.8,2.03,5.9.4,2.39,4.42,2.39,4.82,0,.43-2.57.86-5.13,1.28-7.7.34-2.07.45-4.4,1.75-6.13h-4.32c1.24,2.39,2.2,4.87,2.92,7.47s4.05,2.27,4.82,0c.57-1.66.49-3.37.63-5.08.05-.66.22-1.98.91-2.2l-3.16-2.41c-.04,2.03-.09,4.06-.13,6.08-.06,2.62,3.33,3.21,4.66,1.26,3.2-4.72,5.77-9.8,7.77-15.14l-4.91-.66c-.2,3.62.1,7.23.81,10.79.43,2.14,3.56,2.38,4.57.6,3.02-5.32,6.33-10.48,9.91-15.44.79-1.09.19-2.79-.9-3.42-1.29-.75-2.59-.18-3.42.9-2.13,2.77-3.93,5.74-5.4,8.91-.52,1.13-.41,2.44.64,3.23.91.68,2.49.79,3.28-.2,2.55-3.16,4.81-6.51,6.69-10.12l-4.66-1.26c0,3.12,1.21,6.05,3.41,8.27.9.9,2.66,1.03,3.54,0,2.73-3.19,5.64-6.22,8.71-9.08l-3.54-3.54c-2.4,2.28-4.79,4.56-7.19,6.84-2.03,1.93.62,5.48,3.03,3.93,1.16-.75,2.13-1.72,2.71-2.99s.35-2.69-.9-3.42c-1.08-.63-2.85-.33-3.42.9h0Z"/>
  </g>
  <g>
    <path class="cls-10" d="M1295.46,48.88c1.26-3.43,2.67-6.82,4.57-9.95s4.28-5.72,7.09-8,5.85-4.1,8.89-5.95c3.51-2.13,7-4.28,10.47-6.47,4.02-2.53,8.03-5.09,12.03-7.65,2.7-1.73.2-6.06-2.52-4.32-7.34,4.69-14.69,9.37-22.14,13.89-6.62,4.02-13.11,8.27-17.45,14.86-2.49,3.78-4.21,8.02-5.77,12.26-.47,1.27.52,2.74,1.75,3.08,1.39.38,2.61-.47,3.08-1.75h0Z"/>
    <path class="cls-10" d="M1325.39,8.85c-.23.51-.45.89-.92,1.19l3.03,3.93c2.4-2.28,4.79-4.56,7.19-6.84s-1.18-5.72-3.54-3.54c-3.08,2.86-5.98,5.89-8.71,9.08h3.54c-1.29-1.3-1.94-2.9-1.95-4.73,0-2.4-3.49-3.51-4.66-1.26-1.68,3.21-3.63,6.29-5.91,9.11l3.93,3.03c1.47-3.17,3.27-6.14,5.4-8.91l-4.32-2.52c-3.59,4.96-6.89,10.11-9.91,15.44l4.57.6c-.62-3.12-.8-6.28-.63-9.46.07-1.23-1-2.32-2.17-2.46-1.3-.15-2.3.59-2.74,1.79-1.84,4.93-4.31,9.59-7.27,13.94l4.66,1.26c.04-2.03.09-4.06.13-6.08.03-1.59-1.63-2.89-3.16-2.41-2.17.67-3.55,2.39-4.2,4.52s-.15,4.24-.84,6.25h4.82c-.83-3-1.99-5.9-3.42-8.66-.95-1.83-3.28-1.4-4.32,0-1.48,1.98-1.78,4.48-2.17,6.84-.45,2.73-.91,5.46-1.36,8.18h4.82c-.42-2.5-1.3-4.89-2.53-7.1-1-1.8-4.13-1.54-4.57.6-.6,2.94.06,5.7,1.1,8.45.83,2.19,2.21,4.8,1.87,7.22-.19,1.33.33,2.69,1.75,3.08,1.25.34,2.78-.42,3.08-1.75.38-1.72,1.9-2.72,3.45-3.37,2.42-1.02,4.99-1.5,7.3-2.79,2.08-1.17,1.26-4.84-1.26-4.66-1.54.11-3.08.14-4.62.05-.73-.04-1.46-.1-2.18-.19-.26-.03-.52-.07-.78-.12-.24-.04-.48-.08-.72-.13-.42-.12-.35,0,.19.39l.34,1.26c-.75.98-.84,1.27-.27.86-.09.15.06.11.46-.12.45-.16.93-.27,1.39-.4,1-.29,2.01-.58,3.01-.87,2.08-.6,4.17-1.2,6.25-1.8,3.11-.9,1.81-5.49-1.33-4.82-.78.17-1.57.15-2.34-.06-.16-.05-.32-.1-.48-.14.64.73.73,1.29.26,1.69-.13.11-.14.13-.05.07.23-.07.47-.13.71-.17,2.1-.41,4.3-.49,6.43-.54,2.65-.05,3.17-3.24,1.26-4.66s-3.88-2.64-5.98-3.72l-1.26,4.66c5.1.33,10.21-.09,15.21-1.16,1.2-.26,1.96-1.59,1.79-2.74-.19-1.29-1.18-2.06-2.46-2.17-2.41-.21-4.62-1.13-6.59-2.51l-1.26,4.66c5.13-.21,10.25-.42,15.38-.64,2.22-.09,3.22-2.64,1.77-4.27-2.26-2.53-5.1-4.34-8.28-5.48l-1.33,4.82c4.12,1.37,8.44,2.09,12.79,2.18,1.82.04,3.22-2.18,2.16-3.76-1.3-1.95-2.81-3.72-4.57-5.27l-1.77,4.27c4.34.43,8.75-.05,12.91-1.37,2.58-.82,2.27-5.06-.66-4.91-3.25.17-6.46-.05-9.64-.72l.6,4.57c3.1-1.81,5.31-4.58,6.54-7.93.88-2.39-2.52-4.16-4.18-2.43-1.78,1.86-3.05,4.1-3.67,6.61-.41,1.66.78,3.05,2.41,3.16,4.53.33,9.18-1.66,12.03-5.2.71-.88,1-2,.39-3.03-.51-.88-1.81-1.55-2.82-1.15-2.81,1.13-5.51,2.46-8.06,4.1-2.7,1.73-.19,6.06,2.52,4.32,2.18-1.4,4.46-2.63,6.87-3.59l-2.43-4.18c-2.12,2.63-5.12,3.98-8.49,3.74l2.41,3.16c.42-1.69,1.18-3.14,2.38-4.4l-4.18-2.43c-.78,2.11-2.31,3.82-4.24,4.94-1.77,1.03-1.55,4.12.6,4.57,3.61.76,7.29,1.08,10.97.89l-.66-4.91c-3.78,1.2-7.64,1.58-11.58,1.19-2.14-.21-3.33,2.89-1.77,4.27,1.44,1.27,2.72,2.66,3.79,4.26l2.16-3.76c-3.92-.08-7.73-.76-11.46-2-1.28-.43-2.73.49-3.08,1.75-.38,1.39.47,2.62,1.75,3.08,2.38.85,4.4,2.32,6.07,4.19l1.77-4.27c-5.13.21-10.25.42-15.38.64-2.57.11-3.28,3.25-1.26,4.66,2.72,1.89,5.83,2.9,9.12,3.19l-.66-4.91c-4.57.98-9.22,1.28-13.88.98-2.46-.16-3.43,3.55-1.26,4.66s4.09,2.31,5.98,3.72l1.26-4.66c-2.32.05-4.63.25-6.92.58-1.86.27-3.64.9-4.51,2.71-.96,1.99-.11,4.17,1.85,5.1s4.24,1.02,6.38.57l-1.33-4.82c-2.55.73-5.09,1.47-7.64,2.2-2.2.63-5.21.99-6.46,3.2-.67,1.18-.51,2.78.43,3.77s2.23,1.16,3.5,1.36c2.8.42,5.61.56,8.44.36l-1.26-4.66c-2.52,1.42-5.48,1.79-8.04,3.15-2.37,1.25-4.41,3.33-5.01,6l4.82,1.33c.43-3-.26-5.7-1.33-8.49-.84-2.2-2.12-4.75-1.63-7.17l-4.57.6c1.04,1.86,1.68,3.8,2.03,5.9.4,2.39,4.42,2.39,4.82,0,.43-2.57.86-5.13,1.28-7.7.34-2.07.45-4.4,1.75-6.13h-4.32c1.24,2.39,2.2,4.87,2.92,7.47s4.05,2.27,4.82,0c.57-1.66.49-3.37.63-5.08.05-.66.22-1.98.91-2.2l-3.16-2.41c-.04,2.03-.09,4.06-.13,6.08-.06,2.62,3.33,3.21,4.66,1.26,3.2-4.72,5.77-9.8,7.77-15.14l-4.91-.66c-.2,3.62.1,7.23.81,10.79.43,2.14,3.56,2.38,4.57.6,3.02-5.32,6.33-10.48,9.91-15.44.79-1.09.19-2.79-.9-3.42-1.29-.75-2.59-.18-3.42.9-2.13,2.77-3.93,5.74-5.4,8.91-.52,1.13-.41,2.44.64,3.23.91.68,2.49.79,3.28-.2,2.55-3.16,4.81-6.51,6.69-10.12l-4.66-1.26c0,3.12,1.21,6.05,3.41,8.27.9.9,2.66,1.03,3.54,0,2.73-3.19,5.64-6.22,8.71-9.08l-3.54-3.54c-2.4,2.28-4.79,4.56-7.19,6.84-2.03,1.93.62,5.48,3.03,3.93,1.16-.75,2.13-1.72,2.71-2.99s.35-2.69-.9-3.42c-1.08-.63-2.85-.33-3.42.9h0Z"/>
  </g>
  <ellipse class="cls-1" cx="1277.52" cy="158.32" rx="11.88" ry="5.11" transform="translate(262.23 949.71) rotate(-45)"/>
  <ellipse class="cls-1" cx="1277.52" cy="131.13" rx="11.88" ry="5.11" transform="translate(-2.7 232.63) rotate(-10.39)"/>
  <ellipse class="cls-1" cx="1321.88" cy="139.38" rx="5.11" ry="11.88" transform="translate(200.16 852.49) rotate(-38.46)"/>
  <ellipse class="cls-1" cx="1322.74" cy="161.65" rx="5.11" ry="11.88" transform="translate(186.49 857.86) rotate(-38.46)"/>
  <circle class="cls-5" cx="1365.99" cy="84.09" r="13.48"/>
  <circle class="cls-8" cx="1365.91" cy="84.46" r="4.68"/>
  <circle class="cls-8" cx="1345.09" cy="151.81" r="7.87"/>
  <ellipse class="cls-1" cx="1307.23" cy="199.24" rx="5.11" ry="8.69"/>
  <ellipse class="cls-1" cx="1294.99" cy="199.75" rx="5.11" ry="8.69"/>
  <path class="cls-10" d="M1334.37,10.54c-6.67-1.79-11.04-.8-13.79.4-7.63,3.34-9.17,11.21-18.04,14.13-2.85.94-5.39,1.01-6.99.95v14.97c1.97-1.36,3.95-2.71,5.92-4.07,10.96-8.79,21.93-17.58,32.89-26.38Z"/>
  <path class="cls-10" d="M1360.67,19.2c-6.67-1.79-11.04-.8-13.79.4-7.63,3.34-9.17,11.21-18.04,14.13-2.85.94-5.39,1.01-6.99.95v14.97c1.97-1.36,3.95-2.71,5.92-4.07,10.96-8.79,21.93-17.58,32.89-26.38Z"/>
  <g>
    <path class="cls-9" d="M36.44,707.45c-3.33.59-5.97.43-7.39.33-1.68-.11-2.97-.32-4.99-.66-1.91-.32-2.86-.47-4.14-.83-2.8-.77-4.12-1.6-4.31-1.32-.22.31,1.16,1.7,2.6,2.74,1.17.84,2.2,1.31,5.69,2.71,1.41.57,2.62,1.04,3.55,1.4-.98-.23-2.45-.46-4.23-.33-.63.05-1.85.18-3.3.66-1.19.39-2.05.85-4.82,2.64-2.45,1.58-3.67,2.37-4.23,2.81-1.98,1.55-2.1,2.06-5.08,4.62-.22.19-1.05.9-2.11,1.9-.77.72-1.16,1.08-1.61,1.57-.8.87-2.3,2.68-2.03,2.97.2.21,1.16-.57,3.3-1.65,1.64-.83,1.88-.77,4.48-1.9,1.31-.57,1.12-.53,4.4-2.06,2.63-1.23,3.94-1.85,5.24-2.39,1.73-.73,3.04-1.21,4.91-1.9,2.1-.77,3.87-1.38,5.16-1.82-.93,1.72-1.69,3.21-2.28,4.38-1.26,2.5-.84,1.83-2.67,5.58-.61,1.24-.97,1.97-1.33,3.11-.44,1.41-.87,3.41-.53,3.54.26.1.78-.97,1.9-2.65,2.11-3.19,4.25-5.4,5.5-6.69.64-.66,1.6-1.62,2.84-2.71-.96,1.21-1.47,2.35-1.74,3.13-1,2.84-.47,5.24-.17,6.52.1.44.63,2.67,1.18,2.64.45-.02.58-1.48.93-2.89,0,0,1.43-5.84,7.44-11.31.6-.55,1.25-1.05,2.11-2.06.94-1.11,1.1-1.63,1.86-2.15.92-.63,1.86-.67,2.79-.74,1.93-.15,3.82-.62,5.75-.74,5.49-.35,5.17-.76,10.57-1.07,1.65-.1,4.07-.19,7.02-.17-.21.26-.49.65-.76,1.16-.34.64-.57,1.08-.59,1.65-.04,1.14.83,1.97,1.02,2.15.92.88,2.08.98,2.45.99.67.02,1.19-.14,3.21-1.24,1.99-1.08,3.08-1.8,4.91-2.81.8-.44,1.46-.79,1.86-.99,6.12.06,11.02.62,14.46,1.16,1.61.25.65.14,8.12,1.49,5.23.94,7.16,1.26,9.98,2.06,2.56.73,4.6,1.52,5.92,2.06-.4.34-1,.82-1.78,1.32-1.17.75-2.59,1.44-6.17,2.39-2.66.71-4.4,1.17-6.94,1.49-3.35.41-4.59.13-4.82.74-.38,1.01,2.39,3.34,5.33,4.29.97.31,1.04.18,3.98.79,2.52.53,3.14.76,4.39,1.02,2.49.52,4.31.48,7.87.41,4.01-.08,6.01-.12,7.7-.83,2.52-1.06,4.11-2.85,4.99-4.05,1.4.97,2.81,1.94,4.21,2.92-.04.43-.06,1.1.11,1.87.15.7.44,2,1.64,2.91,1.01.76,2.1.82,2.4.83,1.66.04,2.77-.91,3-1.12.58.47,1.48,1.09,2.68,1.59.54.22,2.23.83,4.23.83,2.52,0,4.38-1.38,6.09-2.64.79-.58,3.06-2.36,5.16-5.78,1.24-2.02,1.95-4.46,3.38-9.33.9-3.05,1.49-5.56,1.62-8.5.07-1.57-.02-2.67-.25-3.76-.4-1.84-1.13-3.27-1.7-4.35-.54-1.02-1.06-1.83-1.45-2.39.17-.42.39-1.15.34-2.06-.03-.47-.11-1.57-.93-2.56-.87-1.04-2.26-1.61-3.64-1.49-1.13.1-1.92.63-2.25.88-.7-.48-1.64-1.09-2.77-1.75-.95-.55-2.14-1.24-3.71-1.94-1.16-.52-2.74-1.13-4.7-1.65-.14-.56-.36-1.33-.66-2.23-.18-.52-.76-2.23-1.57-3.76-1.34-2.54-3.11-4.2-3.91-4.94-2.85-2.63-5.71-3.74-8.49-4.82-1.29-.5-5.18-1.93-10.35-2.39-1.86-.17-3.57-.1-6.99.04-2.18.09-3.26.2-3.31.53-.06.36,1.16.68,3.37,1.76,1.84.9,3.13,1.72,4.04,2.29.5.32,2.25,1.44,4.34,3.17,1.74,1.45,2.43,2.25,2.95,3,.48.69.81,1.32,1.02,1.76-1.1-.16-2.63-.37-4.46-.53-2.83-.25-5.13-.29-7.71-.29-5.62,0-8.43,0-11.74.29-4.61.4-8.09,1.08-12.77,2-3.11.61-5.7,1.2-7.59,1.65-.27-.2-.7-.51-1.26-.82-.53-.29-1.89-.98-6.75-1.53-.39-.04-1.76-.2-3.55-.24-1.55-.03-2.16.04-2.77.24-.65.2-2.06.64-2.29,1.65-.16.69.31,1.33.72,1.88.65.87,1.47,1.34,2.65,2,.51.29.96.5,1.26.65-1.1.34-2.61.82-4.4,1.47-1.77.64-5.37,2.01-10,4.29-4.38,2.16-7.82,3.87-11.44,6.23-.73.48-2.23,1.48-4.46,2.35-2.07.81-3.76,1.12-4.76,1.29Z"/>
    <path class="cls-9" d="M87.45,700.09c1.52-.02,3.42.03,5.6.26,2.01.2,3.74.5,3.73.52,0,.03-3.33-.61-7.29-.76-.98-.04-1.99-.02-9.52.59-3.93.32-5.93.48-7.33.65-2.52.3-5.33.63-8.65,1.36,0,0-7.28,1.61-15.27,5.22-.43.19-2.17.99-4.58,1.94-1.66.66-3.3,1.26-3.31,1.23,0-.02,1.38-.6,7.89-3.17"/>
    <path class="cls-9" d="M158.49,695.79c.22.49.59,1.18,1.23,1.85.59.61,1.13.93,1.95,1.42.71.42,1.76,1.04,3.31,1.96"/>
    <path class="cls-9" d="M145.21,735.34c.16-.3.38-.83.4-1.51.04-1.37-.79-2.31-1.05-2.59-.71-.74-1.53-.99-2-1.12-.23-.07-1.2-.33-2.45-.1-.96.18-1.66.57-2.05.83"/>
    <path class="cls-9" d="M167.09,718.81c.02-.11.21-1.29,1.28-1.79.16-.08.84-.38,1.6-.1.76.28,1.07.94,1.15,1.12.2.48.13.86-.15,2.25-.32,1.55-.48,2.33-.55,2.59-.27,1-.53,1.7-.9,2.69-.78,2.09-1.19,2.75-1.4,3.08-.89,1.36-1.45,1.52-1.65,1.56-.59.13-1.26-.05-1.7-.44-.72-.64-.86-1.87-.21-2.89"/>
    <path class="cls-9" d="M168.47,713.27c.43-.22,1.05-.49,1.85-.68.65-.16,1.92-.45,3.4-.1,1.52.36,2.47,1.21,3.25,1.9,1.08.97,1.68,1.92,2.25,2.83,1.11,1.79.94,2.21,2.1,3.96,1.06,1.58,1.75,2.06,2.05,2.25.55.35,1.55.97,2.8.73.1-.02,1.28-.26,2-1.27.26-.36.36-.68.55-1.32.35-1.15.43-2.14.4-2.15-.02,0-.1.39-.4,2.15"/>
    <path class="cls-9" d="M159.69,733.89c1.06.02,2.69.21,4.24,1.16.79.49,1.85,1.35,4.4,6.01,2.1,3.82,2.25,4.84,3.75,5.71,1.57.92,3.36.96,4,.98,2.65.06,3.38-1.03,5.16-.53,1.34.38,2.11,1.34,3.15,2.61.5.62,1.84,2.42,2.25,5,.23,1.46.08,2.64.1,2.64.01,0,.15-1.2-.1-2.64-.19-1.11-.55-1.99-.83-2.58"/>
  </g>
  <path class="cls-11" d="M112.54,821.59c4.6,0,9.4-.11,14.4-.38,3.03-.17,5.98-.38,8.85-.64.9-1.23,2.02-2.85,3.22-4.8.75-1.21,1.93-3.14,3.19-5.72,1.15-2.34,1.28-3.02,2.47-5.72.71-1.62,1.8-3.98,3.33-6.79.14,3.37.28,6.73.41,10.1,1.27-1.27,2.14-2.41,2.68-3.17,2.31-3.27,2.64-5.47,5.24-8.4.67-.76,1.28-1.31,1.65-1.64.06.27.14.66.16,1.14.07,1.58-.5,2.78-.75,3.33-.82,1.75-1.36,3.62-2.29,5.32-1.49,2.73-3.24,6.07-5.39,10.21,5.58-2.68,10.2-5.03,13.73-6.87,3.64-1.9,5.24-2.8,7.21-4.25,2.29-1.69,4.42-3.26,6.46-5.35.45-.46,1.53-1.59,3.24-2.78.89-.62,1.66-1.05,2.17-1.32-1.03,1.54-2.55,3.72-4.49,6.26-2.14,2.79-3.87,4.79-6.19,7.48-1.79,2.07-3.62,4.17-6.19,6.89-3.78,3.99-5.87,5.82-8.82,7.23-.98.47-1.83.79-2.4.98.87.48,1.83,1.07,2.82,1.8,1.24.92,2.27,1.84,3.1,2.69-.34.05-.9.12-1.59.15-1.7.09-2.97-.08-3.33-.13-.98-.12-3.56-.11-8.7-.1-5.83.02-7,.15-8.51.61-1.61.49-2.59,1.04-3.71,1.62-3.17,1.63-6.25,2.66-12.4,4.71-3.43,1.15-7.52,2.39-12.2,3.55,1.1.04,2.95.29,4.7,1.52.89.63,2,1.41,2.29,2.82.21,1,.04,2.49-.92,3.36-.05.04-.1.09-.17.14-1.31.94-3.25.6-3.83.5-7.03-1.29-8.52-.91-10.19-2.78-.45-.51-1.09-1.36-1.53-2.7-6.96,1.36-12.82,1.84-17.1,2.01-6.67.26-12.1-.13-17.87-.55-4.34-.32-7.95-.7-10.49-1-.13.4-.27,1-.23,1.73.09,1.64,1.06,2.88,2.19,4,1.87,1.88,4.53,3.81,9.34,5.97,3.08,1.38,4.04,1.5,3.99,1.82-.15,1.06-10.68.2-15.67-1.53-.63-.22-1.8-.63-3.17-1.5-.96-.61-1.41-1.06-3.22-2.76-3.34-3.14-3.74-3.43-4.66-4.58-1.12-1.39-1.68-2.11-1.98-3.27-.46-1.79,0-3.38.33-4.23-2.44-1.16-5.22-2.69-8.12-4.73-2.01-1.42-3.76-2.86-5.27-4.22-.83-.02-1.5.04-1.96.1-1.06.13-1.4.3-2.08.18-.65-.12-1.09-.42-1.49-.69-.3-.21-1.04-.75-1.64-1.7-.29-.46-1.21-1.95-.91-3.93.21-1.33.86-2.24,1.2-2.65-.69-.99-1.89-3.01-2.27-5.84-.33-2.47.11-4.47.44-5.6-.21.15-1.04.69-1.9.43-.98-.3-1.34-1.45-1.47-1.83-.33-1.04-.27-2.47,3.35-8.14,2.47-3.86,3.47-4.8,4.44-4.69.41.05,1.08.32,1.48.93.49.75.3,1.59.26,1.77,1.54-2.07,4.08-4.68,7.61-5.66.32-.09,0,.02,5.79-.72.95-.12,1.98-.25,3.28.06,1.13.27,1.99.77,2.54,1.15,2.77,2.31,5.53,4.63,8.3,6.94,1.52-1.57,3.02-2.48,4.04-3,.99-.5,2.15-1.08,3.76-1.18.97-.07,1.69.07,2.42.21,3.35.65,5.03.97,6.69,1.53,1.92.65,3.48,1.45,6.58,3.05,3.71,1.91,3.87,2.28,3.83,2.47-.1.4-1.21.31-6.27.44-3.72.1-2.67.14-4.68.17-.84.01-1.96.09-4.18.25-1.35.1-2.19.17-2.88.8-.58.52-.81,1.19-.91,1.65,8.15,4.01,14.38,6.52,18.4,8.01,4.12,1.53,8.63,3.04,8.63,3.04,2.23.75,4.43,1.45,8.83,2.87,1.82.59,3.34,1.07,4.4,1.41.55-.91,1.55-2.3,3.21-3.55,1.79-1.34,3.45-1.84,3.93-1.98,1.91-.53,3.7-1.03,5.21,0,1.25.86,2.14,2.65,1.69,4.49-.4,1.62-1.74,2.87-3.42,3.18Z"/>
  <path class="cls-6" d="M33.39,790.3c1.16-.38,2.88-.81,4.99-.87,1.3-.04,2.85-.07,4.6.5,1.78.57,2.48,1.38,5.79,4.15,1.03.86,2.58,2.14,4.52,3.65.26-.29.64-.68,1.12-1.1.45-.39,2.27-1.65,4.47-2.61,1.81-.79,3.44-.52,6.59,0,2.47.41,4.23,1.06,5.97,1.72,1.57.59,3.24,1.48,6.57,3.25,1.87.99,2.67,1.46,2.58,1.81-.08.33-.91.38-3.2.42-2.82.04-5.33.01-7.48.04,0,0-1.42.02-4.46.4-1.15.14-2.19.31-2.99,1.12-.45.45-.68.96-.81,1.32,2.66,1.41,5.13,2.59,7.34,3.59,1.67.76,4.65,2.1,8.63,3.56,2.91,1.07,3.02.98,7.6,2.62,3.29,1.18,3.34,1.27,5.55,2.01,2.07.7,2.97.94,6.73,2.13,1.88.59,3.41,1.09,4.4,1.41.19-.47.52-1.14,1.08-1.83.95-1.18,2.05-1.66,3.55-2.53.8-.46,2.06-1.19,3.84-1.5,1.25-.22,2.61-.45,3.89.33,1.08.66,1.51,1.7,1.59,1.92.47,1.21.18,2.27.09,2.57-.04.14-.24.8-.8,1.5-.89,1.12-2.07,1.53-2.62,1.68,3.22.28,5.85.26,7.63.19,3.19-.12,4.88-.45,9.84-.84,2.47-.2,4.49-.31,5.78-.37.46-.63,1.07-1.47,1.76-2.5,1.68-2.51,2.77-4.54,3.12-5.19.52-.97,1.11-2.26,2.3-4.83,1.41-3.06,2.12-4.6,2.54-5.64.41-1.02.9-2.02,1.34-3.03.62-1.41.95-2.17,1.16-2.12.05.01.16.09.24,1.61.06,1.12.05,1.73.05,1.73,0,1.08-.03,2.15-.05,3.23-.01.9,0,2.2.15,3.82"/>
  <path class="cls-6" d="M143.72,814.26c.38-.43.89-1.02,1.49-1.74,1.53-1.85,2.6-3.33,3.41-4.46.82-1.14,1.83-2.56,3.05-4.51,1.47-2.36,2.2-3.54,2.88-4.8,0,0,.7-1.31,2.04-3.02,1-1.27,1.25-1.35,1.38-1.29.44.18.02,2.14-.12,2.76-.23,1.08-.56,2.12-1.5,4.31-.88,2.05-1.65,3.62-2.25,4.84-.57,1.15-1.05,2.08-1.37,2.69-1.24,2.35-1.85,3.53-2.28,4.13-.47.67-.86,1.13-.75,1.26.12.14.79-.29,2.11-1.05.17-.1,1.29-.7,3.54-1.9,0,0,.95-.51,2.41-1.27,3.89-2.02,5.06-2.29,7.79-3.75,3.75-2.01,6.41-4.11,7.08-4.65,2.07-1.66,3.65-3.11,3.65-3.11.89-.82,1.82-1.6,2.7-2.43.22-.2,1.01-.96,2.19-1.74.58-.38,1.21-.8,1.34-.67.11.11-.15.55-1.66,2.58-1.17,1.57-2.12,2.77-2.44,3.18-1.15,1.46-1.72,2.18-2.39,3-.98,1.19-1.54,1.81-2.25,2.63-2.87,3.32-2.74,3.61-4.75,5.84-.32.36-1.62,1.64-4.22,4.22-2.25,2.23-2.96,2.9-4.05,3.79-2.04,1.65-3.06,2.48-3.93,2.62,0,0-1.75.29-1.89.85,0,0,0,.01,0,.03-.04.33.64.64,1.26.99.75.42,1.27.83,1.9,1.32.46.36.76.63,1.06.92.84.78,1.26,1.17,1.19,1.37-.11.3-.96.15-2.9.11-1.15-.03-.22.03-2.87,0-1.56-.02-2.79-.05-3.79-.07-3.75-.09-4.42-.14-6.34-.14-1.51,0-2.47.03-3.68.18-.34.04-1.47.19-2.55.46-2.32.58-3.06,1.38-5.84,2.76-2.31,1.14-4.22,1.78-5.45,2.19-.97.32-.99.3-4.82,1.38-2.64.75-3.96,1.13-5.38,1.59-1.27.41-3.14,1.05-5.38,1.97.82.3,1.48.6,1.95.83,1.4.69,2.21,1.09,2.87,1.98.23.31.58.79.74,1.52.24,1.1,0,2.53-.92,3.36-.75.68-1.83.67-4,.64-1.36-.02-2.32-.19-3.9-.46-2.61-.44-3.64-.85-4.08-1.03-.89-.37-1.55-.65-2.22-1.29-.99-.94-1.37-2.07-1.53-2.7-3,.63-5.55,1-7.45,1.24-2.46.3-4.34.43-6.88.6-1.5.1-3.65.25-6.5.32-1.18.03-2.95.07-5.24.04-2.37-.04-4.83-.08-8-.42-2.72-.29-4.48-.33-6.91-.64-1.84-.23-3.37-.48-4.48-.67-.12.38-.27.98-.23,1.73.04.73.23,1.26.32,1.5.43,1.13,1.22,2.03,2.55,3.08,1.09.87,2.13,1.59,3.51,2.48,1.8,1.16,2.7,1.74,4.07,2.44,1.9.98,2.86,1.46,3.83,1.77.62.19,1.25.35,1.24.53-.02.26-1.45.37-2.27.42-.98.07-1.99.14-3.29.04-9.18-.75-13.99-3.89-13.99-3.89-1.45-1.16-2.84-2.36-5.42-5.03-2.93-3.03-3.66-4.35-3.87-5.84-.21-1.48.15-2.75.47-3.58-.36-.18-.89-.44-1.53-.77-2.79-1.41-4.19-2.12-5.1-2.71-.59-.38-1.97-1.51-4.7-3.77-.86-.71-1.57-1.3-2.06-1.71-.97.02-1.76.09-2.3.14-1.27.13-1.66.26-2.3.07-.71-.21-1.16-.64-1.56-1.03-.93-.89-1.3-1.88-1.49-2.37-.24-.65-.6-1.61-.43-2.87.18-1.32.85-2.23,1.2-2.65.31.44.75,1.06,1.31,1.8.88,1.17,1.53,1.96,2.59,3.26.62.75,1.63,1.99,2.98,3.64"/>
  <path class="cls-6" d="M21.44,818.91c-.36-.63-.83-1.51-1.28-2.62-.41-1.02-.79-1.96-.99-3.22-.26-1.65-.07-2.94.07-3.86.26-1.66.73-2.95,1.2-4.07,1.3-3.08,3.05-7.25,7.19-11.11,1.06-.99,2.02-1.88,3.29-2.61.97-.56,1.85-.91,2.46-1.12"/>
  <path class="cls-6" d="M46.22,792.74c.35,1.49-.54,2.69-.66,2.84-1.1,1.43-3.35,1.96-5.01.96-1.12-.67-2.01-2.06-1.78-3.55.29-1.82,2.13-2.98,3.83-2.96,1.58.02,3.23,1.08,3.62,2.71Z"/>
  <path class="cls-6" d="M30.46,792.33c-1.06-.77-1.91-1.5-2.57-2.11-.95-.87-1.43-1.33-1.83-2.01-.32-.55-.62-1.27-.82-3.21-.36-3.36.25-3.71-.27-5.31-.62-1.87-1.97-2.97-2.38-3.3-1.8-1.42-3.76-1.58-4.67-1.65-1.06-.08-1.81.04-2.09.09-.64.12-1.74.34-2.77,1.19-.5.42-.85.89-.82.92.05.05.98-1.16,2.39-1.8,1.22-.56,2.45-.52,3.29-.4"/>
  <path class="cls-6" d="M25.78,795.96c.31-.84.12-1.73-.45-2.25-.53-.48-1.2-.46-1.28-.46-.65.03-1.11.41-1.37.64-1.9,1.66-2.93,3.3-2.93,3.3-.84,1.33-1.31,2.33-2.02,3.85-1.66,3.57-1.65,4.39-1.47,5.04.08.3.42,1.52,1.47,1.83.9.27,1.74-.32,1.9-.43"/>
  <path class="cls-6" d="M19.17,813.07c-.59.15-1.73.36-3.1.05-.42-.09-1.91-.47-3.21-1.74-1.59-1.56-1.88-3.49-2.11-4.95-.09-.56-.36-2.58.27-5.22.73-3.04,1.79-3.27,2.11-5.95.15-1.25.37-3.12-.79-4.35-.9-.95-2.25-1.12-3.23-1.24-1.69-.21-3.13.14-3.13.19,0,.03.58.02,3.13-.19"/>
  <path class="cls-6" d="M89.39,831.43c-1.01,0-2.53-.05-4.33-.33-4.79-.75-8.47-2.61-8.48-2.58,0,.02,1.67.75,2.6,1.1,6.18,2.37,14.57,2.19,22.37,1.64,0,0,11.6-.82,28.11-4.16.64-.13,2.36-.48,4.55-1.18,3.86-1.22,6.2-2.56,6.76-2.89.98-.57,1.92-1.2,1.92-1.19,0,0-.85.59-1.92,1.19-.82.46-1.52.79-1.99,1"/>
</svg>