<?xml version="1.0" encoding="UTF-8"?>
<svg id="Layer_1" xmlns="http://www.w3.org/2000/svg" xmlns:xlink="http://www.w3.org/1999/xlink" version="1.1" viewBox="0 0 64.3 64.2">
  <!-- Generator: Adobe Illustrator 29.2.1, SVG Export Plug-In . SVG Version: 2.1.0 Build 116)  -->
  <path d="M5,64.2c-1.9-.5-4-1.4-4.6-3.5V3.3C.2,2.6,2.4.6,2.8.6h3.7c0,2.3-3,.7-4.1,3.2l-.5,54.5c.2,2.3,1.4,3.5,3.7,3.7l54.1-.2c1.1-.5,2.1-1.2,2.2-2.6.4-3.7,0-8.8,0-12.7.1-6.3.6-12.8,0-19.2-.6-7.2.8-15.6,0-22.6s-.9-2.1-2-2.6l-47.8-.2c-1-.1-1.5-.4-1.3-1.4h50.5c.8,0,3,2.9,2.8,4v54.7c-.1,2.6-2.6,4.6-5,4.9H5Z"/>
  <path d="M35,53.8c-1.8.6-3.6,0-5.4,0s-4.5.2-5.2-.1-.4-.3-.4-.5v-28.9c.3-.4.6-.4,1-.5,2.8-.4,6.4.3,9.4,0,1,.1.8,1.3,1.2,1.9,5.4-4.7,14.6-2.8,17.4,3.9s1.9,15.3,1.6,20.2-.2,3-.4,3.4-.3.5-.7.5c-1.4.2-4,0-5.5,0s-4,.5-4.8-.2-.3-.9-.4-1.3c-.5-5.2,1.1-11.5,0-16.5s-6.9-3.9-7.6.7.9,16.5-.3,17.3ZM52.3,51.7v-17.4c0-7.1-9.6-12-15.1-7.2s-2.1,3-3.1,2.9-.9-.3-.9-.5v-3.5h-7.2v25.7h7.4c.1-4.7-.6-9.4-.2-14s2.6-7.8,7.3-7,4.7,2.6,4.7,4.6v16.4h7.2Z"/>
  <path d="M18.7,26h-7v25.7h7v-6.1c0-.8,1.8-1.3,2.1-.2s.2,6.4,0,7.4-.5,1-1.3,1.1c-1.7.2-6.5.4-8.1.2s-2-.4-2.1-2.2c-.6-8.4.5-17.5,0-25.9,0-1,.2-1.9,1.3-2s8.7-.1,9.5.1.4.2.6.4v16.7c-.1,1.4-2,.6-2,0v-15Z"/>
  <path d="M13.9,10.5c2.7-.4,5.9.5,7.1,3.1,2.5,5.4-2.7,9.8-8,8.2s-5.1-10.5.9-11.3ZM18.4,13.6c-3.1-3.1-9.6.3-6.7,4.7s10.9-.6,6.7-4.7Z"/>
</svg>