<?xml version="1.0" encoding="UTF-8"?>
<svg id="moon_clouds" data-name="moon &amp;amp; clouds" xmlns="http://www.w3.org/2000/svg" viewBox="0 0 628.23 581.01">
  <defs>
    <style>
      .cls-1 {
        fill: #fff;
        opacity: .75;
      }

      .cls-2 {
        fill: #999897;
        opacity: .85;
      }
    </style>
  </defs>
  <path class="cls-2" d="M268.86,9.54c28.58-7.57,83.55-17.51,146.78,1.07,106.33,31.25,155.93,119.61,168.2,143.56,6.54,12.76,22.81,46.93,29.16,94.69,5.31,39.99,11.27,146.77-64.52,234.22-61.13,70.54-139.77,87.34-163.92,92.14-27.57,5.47-133.6,22.5-229.27-46.07-12.15-8.71-88.6-65.2-110.35-163.92-3.44-15.59-4.78-28.97-5.36-38.57,5.35,12.58,14.26,30.08,28.93,48.21,27.48,33.97,58.71,49.81,75,57.85,24.22,11.96,79.77,39.4,150.68,24.62,69.29-14.45,110.6-60.32,126.81-81.4,46.29-60.18,47.02-125.03,46.07-147.85-.58-13.92-5.41-97.34-75-160.7-48.24-43.93-101.77-54.72-123.21-57.85Z"/>
  <path class="cls-1" d="M380.92,411.23c-62.01.82-112.25.91-146.51.85-28.77-.05-46.67-.21-106.53-.58-54.94-.33-99.39-.56-127.88-.7,8.8-3.43,18.44-6.76,28.88-9.77,6.91-1.99,13.58-3.67,19.96-5.1-.48-1.08-9.14-21.4,3.4-39.49,8.93-12.89,24.96-19.36,40.79-16.43,3.21-4.76,8.03-10.92,15.81-14.7,7.5-3.65,16.88-5.82,27.06-5.82,5.49,0,10.75.63,15.61,1.79,8.28-6.83,20.39-11.13,33.86-11.13,23.55,0,42.9,13.14,45.03,29.94,4.43-.7,9.13-1.07,14-1.07,26.62,0,48.2,11.22,48.2,25.06,0,3.65-1.5,7.11-4.19,10.24,11.8,13.59,23.19,19.54,31.37,22.47,9.93,3.55,16.32,3.07,34.82,7.22,11.4,2.55,20.52,5.32,26.33,7.22Z"/>
  <path class="cls-1" d="M628.23,508.09c-113.56-.22-227.12-.45-340.67-.67,3.37-2.96,8.44-6.76,15.3-9.83,7.96-3.56,15.14-4.71,19.96-5.1.71-15.92,11.5-28.7,24.91-31.05,14.12-2.48,24.9,7.68,26.1,8.85-.65-13.8,5.73-26.8,16.81-33.62,14.24-8.76,34.06-5.97,46.9,7.52,15.14-10.96,33.9-11.99,46.45-3.1,9.17,6.5,12.26,16.34,13.27,20.35,4.46-2.53,22.19-11.9,42.91-6.19,5.37,1.48,18.2,5.01,25.15,16.1,5.64,9,1.85,14.11,7.58,20.18,6.18,6.55,14.17,4.25,30.53,7.96,10.98,2.49,19.49,6.08,24.78,8.6Z"/>
</svg>